<svg width="60" height="58" viewBox="0 0 60 58" fill="none" xmlns="http://www.w3.org/2000/svg">
<path d="M1.875 54V45.4688H4.66406C5.58984 45.4688 6.28516 45.6602 6.75 46.043C7.21875 46.4258 7.45312 46.9922 7.45312 47.7422C7.45312 48.1406 7.33984 48.4941 7.11328 48.8027C6.88672 49.1074 6.57812 49.3438 6.1875 49.5117C6.64844 49.6406 7.01172 49.8867 7.27734 50.25C7.54688 50.6094 7.68164 51.0391 7.68164 51.5391C7.68164 52.3047 7.43359 52.9062 6.9375 53.3438C6.44141 53.7812 5.74023 54 4.83398 54H1.875ZM3 50.0098V53.0801H4.85742C5.38086 53.0801 5.79297 52.9453 6.09375 52.6758C6.39844 52.4023 6.55078 52.0273 6.55078 51.5508C6.55078 50.5234 5.99219 50.0098 4.875 50.0098H3ZM3 49.1074H4.69922C5.19141 49.1074 5.58398 48.9844 5.87695 48.7383C6.17383 48.4922 6.32227 48.1582 6.32227 47.7363C6.32227 47.2676 6.18555 46.9277 5.91211 46.7168C5.63867 46.502 5.22266 46.3945 4.66406 46.3945H3V49.1074ZM12.2461 48.6328C12.082 48.6055 11.9043 48.5918 11.7129 48.5918C11.002 48.5918 10.5195 48.8945 10.2656 49.5V54H9.18164V47.6602H10.2363L10.2539 48.3926C10.6094 47.8262 11.1133 47.543 11.7656 47.543C11.9766 47.543 12.1367 47.5703 12.2461 47.625V48.6328ZM12.8438 50.7715C12.8438 50.1504 12.9648 49.5918 13.207 49.0957C13.4531 48.5996 13.793 48.2168 14.2266 47.9473C14.6641 47.6777 15.1621 47.543 15.7207 47.543C16.584 47.543 17.2812 47.8418 17.8125 48.4395C18.3477 49.0371 18.6152 49.832 18.6152 50.8242V50.9004C18.6152 51.5176 18.4961 52.0723 18.2578 52.5645C18.0234 53.0527 17.6855 53.4336 17.2441 53.707C16.8066 53.9805 16.3027 54.1172 15.7324 54.1172C14.873 54.1172 14.1758 53.8184 13.6406 53.2207C13.1094 52.623 12.8438 51.832 12.8438 50.8477V50.7715ZM13.9336 50.9004C13.9336 51.6035 14.0957 52.168 14.4199 52.5938C14.748 53.0195 15.1855 53.2324 15.7324 53.2324C16.2832 53.2324 16.7207 53.0176 17.0449 52.5879C17.3691 52.1543 17.5312 51.5488 17.5312 50.7715C17.5312 50.0762 17.3652 49.5137 17.0332 49.084C16.7051 48.6504 16.2676 48.4336 15.7207 48.4336C15.1855 48.4336 14.7539 48.6465 14.4258 49.0723C14.0977 49.498 13.9336 50.1074 13.9336 50.9004ZM23.8887 54C23.8262 53.875 23.7754 53.6523 23.7363 53.332C23.2324 53.8555 22.6309 54.1172 21.9316 54.1172C21.3066 54.1172 20.793 53.9414 20.3906 53.5898C19.9922 53.2344 19.793 52.7852 19.793 52.2422C19.793 51.582 20.043 51.0703 20.543 50.707C21.0469 50.3398 21.7539 50.1562 22.6641 50.1562H23.7188V49.6582C23.7188 49.2793 23.6055 48.9785 23.3789 48.7559C23.1523 48.5293 22.8184 48.416 22.377 48.416C21.9902 48.416 21.666 48.5137 21.4043 48.709C21.1426 48.9043 21.0117 49.1406 21.0117 49.418H19.9219C19.9219 49.1016 20.0332 48.7969 20.2559 48.5039C20.4824 48.207 20.7871 47.9727 21.1699 47.8008C21.5566 47.6289 21.9805 47.543 22.4414 47.543C23.1719 47.543 23.7441 47.7266 24.1582 48.0938C24.5723 48.457 24.7871 48.959 24.8027 49.5996V52.5176C24.8027 53.0996 24.877 53.5625 25.0254 53.9062V54H23.8887ZM22.0898 53.1738C22.4297 53.1738 22.752 53.0859 23.0566 52.9102C23.3613 52.7344 23.582 52.5059 23.7188 52.2246V50.9238H22.8691C21.541 50.9238 20.877 51.3125 20.877 52.0898C20.877 52.4297 20.9902 52.6953 21.2168 52.8867C21.4434 53.0781 21.7344 53.1738 22.0898 53.1738ZM26.2383 50.7773C26.2383 49.8047 26.4688 49.0234 26.9297 48.4336C27.3906 47.8398 27.9941 47.543 28.7402 47.543C29.4824 47.543 30.0703 47.7969 30.5039 48.3047V45H31.5879V54H30.5918L30.5391 53.3203C30.1055 53.8516 29.502 54.1172 28.7285 54.1172C27.9941 54.1172 27.3945 53.8164 26.9297 53.2148C26.4688 52.6133 26.2383 51.8281 26.2383 50.8594V50.7773ZM27.3223 50.9004C27.3223 51.6191 27.4707 52.1816 27.7676 52.5879C28.0645 52.9941 28.4746 53.1973 28.998 53.1973C29.6855 53.1973 30.1875 52.8887 30.5039 52.2715V49.3594C30.1797 48.7617 29.6816 48.4629 29.0098 48.4629C28.4785 48.4629 28.0645 48.668 27.7676 49.0781C27.4707 49.4883 27.3223 50.0957 27.3223 50.9004ZM38.6426 50.9004C38.6426 51.8691 38.4199 52.6484 37.9746 53.2383C37.5293 53.8242 36.9316 54.1172 36.1816 54.1172C35.3809 54.1172 34.7617 53.834 34.3242 53.2676L34.2715 54H33.2754V45H34.3594V48.3574C34.7969 47.8145 35.4004 47.543 36.1699 47.543C36.9395 47.543 37.543 47.834 37.9805 48.416C38.4219 48.998 38.6426 49.7949 38.6426 50.8066V50.9004ZM37.5586 50.7773C37.5586 50.0391 37.416 49.4688 37.1309 49.0664C36.8457 48.6641 36.4355 48.4629 35.9004 48.4629C35.1855 48.4629 34.6719 48.7949 34.3594 49.459V52.2012C34.6914 52.8652 35.209 53.1973 35.9121 53.1973C36.4316 53.1973 36.8359 52.9961 37.125 52.5938C37.4141 52.1914 37.5586 51.5859 37.5586 50.7773ZM43.9277 54C43.8652 53.875 43.8145 53.6523 43.7754 53.332C43.2715 53.8555 42.6699 54.1172 41.9707 54.1172C41.3457 54.1172 40.832 53.9414 40.4297 53.5898C40.0312 53.2344 39.832 52.7852 39.832 52.2422C39.832 51.582 40.082 51.0703 40.582 50.707C41.0859 50.3398 41.793 50.1562 42.7031 50.1562H43.7578V49.6582C43.7578 49.2793 43.6445 48.9785 43.418 48.7559C43.1914 48.5293 42.8574 48.416 42.416 48.416C42.0293 48.416 41.7051 48.5137 41.4434 48.709C41.1816 48.9043 41.0508 49.1406 41.0508 49.418H39.9609C39.9609 49.1016 40.0723 48.7969 40.2949 48.5039C40.5215 48.207 40.8262 47.9727 41.209 47.8008C41.5957 47.6289 42.0195 47.543 42.4805 47.543C43.2109 47.543 43.7832 47.7266 44.1973 48.0938C44.6113 48.457 44.8262 48.959 44.8418 49.5996V52.5176C44.8418 53.0996 44.916 53.5625 45.0645 53.9062V54H43.9277ZM42.1289 53.1738C42.4688 53.1738 42.791 53.0859 43.0957 52.9102C43.4004 52.7344 43.6211 52.5059 43.7578 52.2246V50.9238H42.9082C41.5801 50.9238 40.916 51.3125 40.916 52.0898C40.916 52.4297 41.0293 52.6953 41.2559 52.8867C41.4824 53.0781 41.7734 53.1738 42.1289 53.1738ZM47.5664 47.6602L47.6016 48.457C48.0859 47.8477 48.7188 47.543 49.5 47.543C50.8398 47.543 51.5156 48.2988 51.5273 49.8105V54H50.4434V49.8047C50.4395 49.3477 50.334 49.0098 50.127 48.791C49.9238 48.5723 49.6055 48.4629 49.1719 48.4629C48.8203 48.4629 48.5117 48.5566 48.2461 48.7441C47.9805 48.9316 47.7734 49.1777 47.625 49.4824V54H46.541V47.6602H47.5664ZM52.8984 50.7773C52.8984 49.8047 53.1289 49.0234 53.5898 48.4336C54.0508 47.8398 54.6543 47.543 55.4004 47.543C56.1426 47.543 56.7305 47.7969 57.1641 48.3047V45H58.248V54H57.252L57.1992 53.3203C56.7656 53.8516 56.1621 54.1172 55.3887 54.1172C54.6543 54.1172 54.0547 53.8164 53.5898 53.2148C53.1289 52.6133 52.8984 51.8281 52.8984 50.8594V50.7773ZM53.9824 50.9004C53.9824 51.6191 54.1309 52.1816 54.4277 52.5879C54.7246 52.9941 55.1348 53.1973 55.6582 53.1973C56.3457 53.1973 56.8477 52.8887 57.1641 52.2715V49.3594C56.8398 48.7617 56.3418 48.4629 55.6699 48.4629C55.1387 48.4629 54.7246 48.668 54.4277 49.0781C54.1309 49.4883 53.9824 50.0957 53.9824 50.9004Z" fill="#888888"/>
<path opacity="0.5" d="M25.5 4C25.7761 4 26 4.22386 26 4.5C26 4.77614 25.7761 5 25.5 5C20.2448 5 16 9.2445 16 14.5C16 14.7761 15.7761 15 15.5 15C15.2239 15 15 14.7761 15 14.5C15 8.6922 19.6925 4 25.5 4Z" fill="#00D1C1"/>
<path opacity="0.5" d="M25.5 9C25.7761 9 26 9.22386 26 9.5C26 9.77614 25.7761 10 25.5 10C22.8146 10 21 11.8244 21 14.5C21 14.7761 20.7761 15 20.5 15C20.2239 15 20 14.7761 20 14.5C20 11.2733 22.2611 9 25.5 9Z" fill="#00D1C1"/>
<path d="M36.7725 25.1349C36.9741 25.3236 36.9846 25.64 36.796 25.8417C36.6073 26.0433 36.2909 26.0538 36.0893 25.8651L25.55 16.0038C24.7675 15.2729 24.8286 14.1039 25.678 13.4403C26.4799 12.8138 27.6997 12.8609 28.4353 13.5497L40.8413 25.1346C41.0431 25.3231 41.0539 25.6395 40.8655 25.8413C40.677 26.0431 40.3606 26.054 40.1588 25.8655L27.7523 14.2801C27.3777 13.9293 26.7094 13.9035 26.2937 14.2283C25.9253 14.5161 25.9019 14.9641 26.2329 15.2733L36.7725 25.1349Z" fill="black"/>
<path fill-rule="evenodd" clip-rule="evenodd" d="M17.5 36H42.5C43.8801 36 45 34.8801 45 33.5V27.5C45 26.1199 43.8801 25 42.5 25H17.5C16.1199 25 15 26.1199 15 27.5V33.5C15 34.8801 16.1199 36 17.5 36ZM44 33.5C44 34.3279 43.3279 35 42.5 35H17.5C16.6721 35 16 34.3279 16 33.5V27.5C16 26.6721 16.6721 26 17.5 26H42.5C43.3279 26 44 26.6721 44 27.5V33.5Z" fill="black"/>
<path fill-rule="evenodd" clip-rule="evenodd" d="M21.5 31H38.5C39.3291 31 40 30.3291 40 29.5V25.5C40 25.2239 39.7761 25 39.5 25H20.5C20.2239 25 20 25.2239 20 25.5V29.5C20 30.3291 20.6709 31 21.5 31ZM21 29.5V26H39V29.5C39 29.7769 38.7769 30 38.5 30H21.5C21.2231 30 21 29.7769 21 29.5Z" fill="black"/>
</svg>
