<svg width="53" height="58" viewBox="0 0 53 58" fill="none" xmlns="http://www.w3.org/2000/svg">
<path opacity="0.5" fill-rule="evenodd" clip-rule="evenodd" d="M28.1996 29L17 17.8004L19.7994 15L31 26.1996L28.1996 29Z" fill="#00D1C1"/>
<path opacity="0.5" fill-rule="evenodd" clip-rule="evenodd" d="M34.333 10L33 8.66698L33.667 8L35 9.33302L34.333 10Z" fill="#00D1C1"/>
<path opacity="0.5" fill-rule="evenodd" clip-rule="evenodd" d="M37.333 13L36 11.667L36.667 11L38 12.333L37.333 13Z" fill="#00D1C1"/>
<path fill-rule="evenodd" clip-rule="evenodd" d="M14.1519 31.8347C16.8562 34.539 21.2574 34.539 23.9608 31.8347L36.8034 18.9924L26.8611 9.05031L14.0186 21.8926C11.3152 24.597 11.3152 28.9971 14.0186 31.7014L14.1519 31.8347ZM19.0573 34.8533C17.0273 34.8533 14.9973 34.0805 13.4506 32.5359L13.3174 32.4026C10.2281 29.3114 10.2281 24.2827 13.3174 21.1914L26.511 7.99802C26.704 7.80506 27.0183 7.80506 27.2122 7.99802L37.8557 18.6413C38.0486 18.8362 38.0486 19.1495 37.8557 19.3425L24.662 32.5359C23.1174 34.0805 21.0874 34.8533 19.0573 34.8533Z" fill="black"/>
<mask id="mask0" mask-type="alpha" maskUnits="userSpaceOnUse" x="28" y="5" width="13" height="13">
<path fill-rule="evenodd" clip-rule="evenodd" d="M28.5887 5H41V17.4112H28.5887V5Z" fill="white"/>
</mask>
<g mask="url(#mask0)">
<path fill-rule="evenodd" clip-rule="evenodd" d="M29.793 10.4922L35.508 16.2072L39.797 11.9192L34.081 6.2042L29.793 10.4922ZM35.508 17.4112C35.38 17.4112 35.253 17.3622 35.155 17.2642L28.735 10.8452C28.54 10.6502 28.54 10.3352 28.735 10.1392L33.729 5.1462C33.924 4.9512 34.239 4.9512 34.434 5.1462L40.854 11.5662C41.049 11.7612 41.049 12.0762 40.854 12.2712L35.86 17.2642C35.763 17.3622 35.636 17.4112 35.508 17.4112Z" fill="black"/>
</g>
<path d="M1.04102 54V45.4688H3.44922C4.19141 45.4688 4.84766 45.6328 5.41797 45.9609C5.98828 46.2891 6.42773 46.7559 6.73633 47.3613C7.04883 47.9668 7.20703 48.6621 7.21094 49.4473V49.9922C7.21094 50.7969 7.05469 51.502 6.74219 52.1074C6.43359 52.7129 5.99023 53.1777 5.41211 53.502C4.83789 53.8262 4.16797 53.9922 3.40234 54H1.04102ZM2.16602 46.3945V53.0801H3.34961C4.2168 53.0801 4.89062 52.8105 5.37109 52.2715C5.85547 51.7324 6.09766 50.9648 6.09766 49.9688V49.4707C6.09766 48.502 5.86914 47.75 5.41211 47.2148C4.95898 46.6758 4.31445 46.4023 3.47852 46.3945H2.16602ZM12.6602 54C12.5977 53.875 12.5469 53.6523 12.5078 53.332C12.0039 53.8555 11.4023 54.1172 10.7031 54.1172C10.0781 54.1172 9.56445 53.9414 9.16211 53.5898C8.76367 53.2344 8.56445 52.7852 8.56445 52.2422C8.56445 51.582 8.81445 51.0703 9.31445 50.707C9.81836 50.3398 10.5254 50.1562 11.4355 50.1562H12.4902V49.6582C12.4902 49.2793 12.377 48.9785 12.1504 48.7559C11.9238 48.5293 11.5898 48.416 11.1484 48.416C10.7617 48.416 10.4375 48.5137 10.1758 48.709C9.91406 48.9043 9.7832 49.1406 9.7832 49.418H8.69336C8.69336 49.1016 8.80469 48.7969 9.02734 48.5039C9.25391 48.207 9.55859 47.9727 9.94141 47.8008C10.3281 47.6289 10.752 47.543 11.2129 47.543C11.9434 47.543 12.5156 47.7266 12.9297 48.0938C13.3438 48.457 13.5586 48.959 13.5742 49.5996V52.5176C13.5742 53.0996 13.6484 53.5625 13.7969 53.9062V54H12.6602ZM10.8613 53.1738C11.2012 53.1738 11.5234 53.0859 11.8281 52.9102C12.1328 52.7344 12.3535 52.5059 12.4902 52.2246V50.9238H11.6406C10.3125 50.9238 9.64844 51.3125 9.64844 52.0898C9.64844 52.4297 9.76172 52.6953 9.98828 52.8867C10.2148 53.0781 10.5059 53.1738 10.8613 53.1738ZM16.7441 46.125V47.6602H17.9277V48.498H16.7441V52.4297C16.7441 52.6836 16.7969 52.875 16.9023 53.0039C17.0078 53.1289 17.1875 53.1914 17.4414 53.1914C17.5664 53.1914 17.7383 53.168 17.957 53.1211V54C17.6719 54.0781 17.3945 54.1172 17.125 54.1172C16.6406 54.1172 16.2754 53.9707 16.0293 53.6777C15.7832 53.3848 15.6602 52.9688 15.6602 52.4297V48.498H14.5059V47.6602H15.6602V46.125H16.7441ZM23.1133 54C23.0508 53.875 23 53.6523 22.9609 53.332C22.457 53.8555 21.8555 54.1172 21.1562 54.1172C20.5312 54.1172 20.0176 53.9414 19.6152 53.5898C19.2168 53.2344 19.0176 52.7852 19.0176 52.2422C19.0176 51.582 19.2676 51.0703 19.7676 50.707C20.2715 50.3398 20.9785 50.1562 21.8887 50.1562H22.9434V49.6582C22.9434 49.2793 22.8301 48.9785 22.6035 48.7559C22.377 48.5293 22.043 48.416 21.6016 48.416C21.2148 48.416 20.8906 48.5137 20.6289 48.709C20.3672 48.9043 20.2363 49.1406 20.2363 49.418H19.1465C19.1465 49.1016 19.2578 48.7969 19.4805 48.5039C19.707 48.207 20.0117 47.9727 20.3945 47.8008C20.7812 47.6289 21.2051 47.543 21.666 47.543C22.3965 47.543 22.9688 47.7266 23.3828 48.0938C23.7969 48.457 24.0117 48.959 24.0273 49.5996V52.5176C24.0273 53.0996 24.1016 53.5625 24.25 53.9062V54H23.1133ZM21.3145 53.1738C21.6543 53.1738 21.9766 53.0859 22.2812 52.9102C22.5859 52.7344 22.8066 52.5059 22.9434 52.2246V50.9238H22.0938C20.7656 50.9238 20.1016 51.3125 20.1016 52.0898C20.1016 52.4297 20.2148 52.6953 20.4414 52.8867C20.668 53.0781 20.959 53.1738 21.3145 53.1738ZM35.1484 51.293C35.043 52.1953 34.709 52.8926 34.1465 53.3848C33.5879 53.873 32.8438 54.1172 31.9141 54.1172C30.9062 54.1172 30.0977 53.7559 29.4883 53.0332C28.8828 52.3105 28.5801 51.3438 28.5801 50.1328V49.3125C28.5801 48.5195 28.7207 47.8223 29.002 47.2207C29.2871 46.6191 29.6895 46.1582 30.209 45.8379C30.7285 45.5137 31.3301 45.3516 32.0137 45.3516C32.9199 45.3516 33.6465 45.6055 34.1934 46.1133C34.7402 46.6172 35.0586 47.3164 35.1484 48.2109H34.0176C33.9199 47.5312 33.707 47.0391 33.3789 46.7344C33.0547 46.4297 32.5996 46.2773 32.0137 46.2773C31.2949 46.2773 30.7305 46.543 30.3203 47.0742C29.9141 47.6055 29.7109 48.3613 29.7109 49.3418V50.168C29.7109 51.0938 29.9043 51.8301 30.291 52.377C30.6777 52.9238 31.2188 53.1973 31.9141 53.1973C32.5391 53.1973 33.0176 53.0566 33.3496 52.7754C33.6855 52.4902 33.9082 51.9961 34.0176 51.293H35.1484ZM40.4336 54C40.3711 53.875 40.3203 53.6523 40.2812 53.332C39.7773 53.8555 39.1758 54.1172 38.4766 54.1172C37.8516 54.1172 37.3379 53.9414 36.9355 53.5898C36.5371 53.2344 36.3379 52.7852 36.3379 52.2422C36.3379 51.582 36.5879 51.0703 37.0879 50.707C37.5918 50.3398 38.2988 50.1562 39.209 50.1562H40.2637V49.6582C40.2637 49.2793 40.1504 48.9785 39.9238 48.7559C39.6973 48.5293 39.3633 48.416 38.9219 48.416C38.5352 48.416 38.2109 48.5137 37.9492 48.709C37.6875 48.9043 37.5566 49.1406 37.5566 49.418H36.4668C36.4668 49.1016 36.5781 48.7969 36.8008 48.5039C37.0273 48.207 37.332 47.9727 37.7148 47.8008C38.1016 47.6289 38.5254 47.543 38.9863 47.543C39.7168 47.543 40.2891 47.7266 40.7031 48.0938C41.1172 48.457 41.332 48.959 41.3477 49.5996V52.5176C41.3477 53.0996 41.4219 53.5625 41.5703 53.9062V54H40.4336ZM38.6348 53.1738C38.9746 53.1738 39.2969 53.0859 39.6016 52.9102C39.9062 52.7344 40.127 52.5059 40.2637 52.2246V50.9238H39.4141C38.0859 50.9238 37.4219 51.3125 37.4219 52.0898C37.4219 52.4297 37.5352 52.6953 37.7617 52.8867C37.9883 53.0781 38.2793 53.1738 38.6348 53.1738ZM46.1113 48.6328C45.9473 48.6055 45.7695 48.5918 45.5781 48.5918C44.8672 48.5918 44.3848 48.8945 44.1309 49.5V54H43.0469V47.6602H44.1016L44.1191 48.3926C44.4746 47.8262 44.9785 47.543 45.6309 47.543C45.8418 47.543 46.002 47.5703 46.1113 47.625V48.6328ZM46.7324 50.7773C46.7324 49.8047 46.9629 49.0234 47.4238 48.4336C47.8848 47.8398 48.4883 47.543 49.2344 47.543C49.9766 47.543 50.5645 47.7969 50.998 48.3047V45H52.082V54H51.0859L51.0332 53.3203C50.5996 53.8516 49.9961 54.1172 49.2227 54.1172C48.4883 54.1172 47.8887 53.8164 47.4238 53.2148C46.9629 52.6133 46.7324 51.8281 46.7324 50.8594V50.7773ZM47.8164 50.9004C47.8164 51.6191 47.9648 52.1816 48.2617 52.5879C48.5586 52.9941 48.9688 53.1973 49.4922 53.1973C50.1797 53.1973 50.6816 52.8887 50.998 52.2715V49.3594C50.6738 48.7617 50.1758 48.4629 49.5039 48.4629C48.9727 48.4629 48.5586 48.668 48.2617 49.0781C47.9648 49.4883 47.8164 50.0957 47.8164 50.9004Z" fill="#888888"/>
</svg>
