<svg width="53" height="58" viewBox="0 0 53 58" fill="none" xmlns="http://www.w3.org/2000/svg">
<path d="M6.26172 50.0566H2.56445V53.0801H6.85938V54H1.43945V45.4688H6.80078V46.3945H2.56445V49.1367H6.26172V50.0566ZM9.26758 54H8.18359V45H9.26758V54ZM13.6387 54.1172C12.7793 54.1172 12.0801 53.8359 11.541 53.2734C11.002 52.707 10.7324 51.9512 10.7324 51.0059V50.8066C10.7324 50.1777 10.8516 49.6172 11.0898 49.125C11.332 48.6289 11.668 48.2422 12.0977 47.9648C12.5312 47.6836 13 47.543 13.5039 47.543C14.3281 47.543 14.9688 47.8145 15.4258 48.3574C15.8828 48.9004 16.1113 49.6777 16.1113 50.6895V51.1406H11.8164C11.832 51.7656 12.0137 52.2715 12.3613 52.6582C12.7129 53.041 13.1582 53.2324 13.6973 53.2324C14.0801 53.2324 14.4043 53.1543 14.6699 52.998C14.9355 52.8418 15.168 52.6348 15.3672 52.377L16.0293 52.8926C15.498 53.709 14.7012 54.1172 13.6387 54.1172ZM13.5039 48.4336C13.0664 48.4336 12.6992 48.5938 12.4023 48.9141C12.1055 49.2305 11.9219 49.6758 11.8516 50.25H15.0273V50.168C14.9961 49.6172 14.8477 49.1914 14.582 48.8906C14.3164 48.5859 13.957 48.4336 13.5039 48.4336ZM19.9141 53.2324C20.3008 53.2324 20.6387 53.1152 20.9277 52.8809C21.2168 52.6465 21.377 52.3535 21.4082 52.002H22.4336C22.4141 52.3652 22.2891 52.7109 22.0586 53.0391C21.8281 53.3672 21.5195 53.6289 21.1328 53.8242C20.75 54.0195 20.3438 54.1172 19.9141 54.1172C19.0508 54.1172 18.3633 53.8301 17.8516 53.2559C17.3438 52.6777 17.0898 51.8887 17.0898 50.8887V50.707C17.0898 50.0898 17.2031 49.541 17.4297 49.0605C17.6562 48.5801 17.9805 48.207 18.4023 47.9414C18.8281 47.6758 19.3301 47.543 19.9082 47.543C20.6191 47.543 21.209 47.7559 21.6777 48.1816C22.1504 48.6074 22.4023 49.1602 22.4336 49.8398H21.4082C21.377 49.4297 21.2207 49.0938 20.9395 48.832C20.6621 48.5664 20.3184 48.4336 19.9082 48.4336C19.3574 48.4336 18.9297 48.6328 18.625 49.0312C18.3242 49.4258 18.1738 49.998 18.1738 50.748V50.9531C18.1738 51.6836 18.3242 52.2461 18.625 52.6406C18.9258 53.0352 19.3555 53.2324 19.9141 53.2324ZM25.123 46.125V47.6602H26.3066V48.498H25.123V52.4297C25.123 52.6836 25.1758 52.875 25.2812 53.0039C25.3867 53.1289 25.5664 53.1914 25.8203 53.1914C25.9453 53.1914 26.1172 53.168 26.3359 53.1211V54C26.0508 54.0781 25.7734 54.1172 25.5039 54.1172C25.0195 54.1172 24.6543 53.9707 24.4082 53.6777C24.1621 53.3848 24.0391 52.9688 24.0391 52.4297V48.498H22.8848V47.6602H24.0391V46.125H25.123ZM30.6426 48.6328C30.4785 48.6055 30.3008 48.5918 30.1094 48.5918C29.3984 48.5918 28.916 48.8945 28.6621 49.5V54H27.5781V47.6602H28.6328L28.6504 48.3926C29.0059 47.8262 29.5098 47.543 30.1621 47.543C30.373 47.543 30.5332 47.5703 30.6426 47.625V48.6328ZM32.8223 54H31.7383V47.6602H32.8223V54ZM31.6504 45.9785C31.6504 45.8027 31.7031 45.6543 31.8086 45.5332C31.918 45.4121 32.0781 45.3516 32.2891 45.3516C32.5 45.3516 32.6602 45.4121 32.7695 45.5332C32.8789 45.6543 32.9336 45.8027 32.9336 45.9785C32.9336 46.1543 32.8789 46.3008 32.7695 46.418C32.6602 46.5352 32.5 46.5938 32.2891 46.5938C32.0781 46.5938 31.918 46.5352 31.8086 46.418C31.7031 46.3008 31.6504 46.1543 31.6504 45.9785ZM37.1055 53.2324C37.4922 53.2324 37.8301 53.1152 38.1191 52.8809C38.4082 52.6465 38.5684 52.3535 38.5996 52.002H39.625C39.6055 52.3652 39.4805 52.7109 39.25 53.0391C39.0195 53.3672 38.7109 53.6289 38.3242 53.8242C37.9414 54.0195 37.5352 54.1172 37.1055 54.1172C36.2422 54.1172 35.5547 53.8301 35.043 53.2559C34.5352 52.6777 34.2812 51.8887 34.2812 50.8887V50.707C34.2812 50.0898 34.3945 49.541 34.6211 49.0605C34.8477 48.5801 35.1719 48.207 35.5938 47.9414C36.0195 47.6758 36.5215 47.543 37.0996 47.543C37.8105 47.543 38.4004 47.7559 38.8691 48.1816C39.3418 48.6074 39.5938 49.1602 39.625 49.8398H38.5996C38.5684 49.4297 38.4121 49.0938 38.1309 48.832C37.8535 48.5664 37.5098 48.4336 37.0996 48.4336C36.5488 48.4336 36.1211 48.6328 35.8164 49.0312C35.5156 49.4258 35.3652 49.998 35.3652 50.748V50.9531C35.3652 51.6836 35.5156 52.2461 35.8164 52.6406C36.1172 53.0352 36.5469 53.2324 37.1055 53.2324ZM42.0215 54H40.9375V47.6602H42.0215V54ZM40.8496 45.9785C40.8496 45.8027 40.9023 45.6543 41.0078 45.5332C41.1172 45.4121 41.2773 45.3516 41.4883 45.3516C41.6992 45.3516 41.8594 45.4121 41.9688 45.5332C42.0781 45.6543 42.1328 45.8027 42.1328 45.9785C42.1328 46.1543 42.0781 46.3008 41.9688 46.418C41.8594 46.5352 41.6992 46.5938 41.4883 46.5938C41.2773 46.5938 41.1172 46.5352 41.0078 46.418C40.9023 46.3008 40.8496 46.1543 40.8496 45.9785ZM45.2324 46.125V47.6602H46.416V48.498H45.2324V52.4297C45.2324 52.6836 45.2852 52.875 45.3906 53.0039C45.4961 53.1289 45.6758 53.1914 45.9297 53.1914C46.0547 53.1914 46.2266 53.168 46.4453 53.1211V54C46.1602 54.0781 45.8828 54.1172 45.6133 54.1172C45.1289 54.1172 44.7637 53.9707 44.5176 53.6777C44.2715 53.3848 44.1484 52.9688 44.1484 52.4297V48.498H42.9941V47.6602H44.1484V46.125H45.2324ZM49.7617 52.4121L51.2383 47.6602H52.3984L49.8496 54.9785C49.4551 56.0332 48.8281 56.5605 47.9688 56.5605L47.7637 56.543L47.3594 56.4668V55.5879L47.6523 55.6113C48.0195 55.6113 48.3047 55.5371 48.5078 55.3887C48.7148 55.2402 48.8848 54.9688 49.0176 54.5742L49.2578 53.9297L46.9961 47.6602H48.1797L49.7617 52.4121Z" fill="#888888"/>
<path fill-rule="evenodd" clip-rule="evenodd" d="M33.1828 21.5668C34.9812 19.6473 35.9999 17.1266 35.9999 14.449C35.9999 8.24464 30.6043 3.39247 24.3396 4.06182C19.5107 4.57802 15.4132 8.78324 15.0331 13.6077C14.8021 16.5416 15.79 19.3457 17.72 21.4638C19.4652 23.377 20.4396 25.7936 20.4396 28.282V29.964C20.4396 32.7456 22.706 35 25.4997 35C28.2941 35 30.5598 32.746 30.5598 29.964V28.397C30.5598 25.8256 31.4891 23.3752 33.1828 21.5668ZM24.4458 5.05616C30.1194 4.44996 34.9999 8.83886 34.9999 14.449C34.9999 16.8699 34.0797 19.1469 32.453 20.8831C30.5822 22.8807 29.5598 25.5764 29.5598 28.397V29.964C29.5598 32.1925 27.7429 34 25.4997 34C23.2571 34 21.4396 32.1922 21.4396 29.964V28.282C21.4396 25.5393 20.3689 22.8839 18.459 20.79C16.7133 18.8742 15.821 16.3414 16.03 13.6862C16.3723 9.34201 20.0952 5.52124 24.4458 5.05616Z" fill="black"/>
<path d="M21.5 29C21.2239 29 21 28.7761 21 28.5C21 28.2239 21.2239 28 21.5 28H29.5C29.7761 28 30 28.2239 30 28.5C30 28.7761 29.7761 29 29.5 29H21.5Z" fill="black"/>
<path opacity="0.5" fill-rule="evenodd" clip-rule="evenodd" d="M23.687 22.0002C23.656 22.0002 23.625 21.9922 23.597 21.9762C23.522 21.9312 23.489 21.8392 23.519 21.7562L25.3841 16.5382L23.13 15.8842C23.072 15.8672 23.025 15.8212 23.008 15.7632C22.99 15.7042 23.003 15.6402 23.042 15.5922L27.6142 10.0642C27.6682 9.99916 27.7612 9.98116 27.8352 10.0212C27.9092 10.0622 27.9452 10.1492 27.9222 10.2312L26.6041 14.8862L28.8702 15.5442C28.9292 15.5612 28.9752 15.6062 28.9922 15.6662C29.0102 15.7262 28.9962 15.7902 28.9572 15.8372L23.823 21.9372C23.788 21.9782 23.737 22.0002 23.687 22.0002Z" fill="#00D1C1"/>
</svg>
