<svg width="40" height="57" viewBox="0 0 40 57" fill="none" xmlns="http://www.w3.org/2000/svg">
<path d="M16.8418 51.8809C16.5527 52.2949 16.1484 52.6055 15.6289 52.8125C15.1133 53.0156 14.5117 53.1172 13.8242 53.1172C13.1289 53.1172 12.5117 52.9551 11.9727 52.6309C11.4336 52.3027 11.0156 51.8379 10.7188 51.2363C10.4258 50.6348 10.2754 49.9375 10.2676 49.1445V48.4004C10.2676 47.1152 10.5664 46.1191 11.1641 45.4121C11.7656 44.7051 12.6094 44.3516 13.6953 44.3516C14.5859 44.3516 15.3027 44.5801 15.8457 45.0371C16.3887 45.4902 16.7207 46.1348 16.8418 46.9707H15.7168C15.5059 45.8418 14.834 45.2773 13.7012 45.2773C12.9473 45.2773 12.375 45.543 11.9844 46.0742C11.5977 46.6016 11.4023 47.3672 11.3984 48.3711V49.0684C11.3984 50.0254 11.6172 50.7871 12.0547 51.3535C12.4922 51.916 13.084 52.1973 13.8301 52.1973C14.252 52.1973 14.6211 52.1504 14.9375 52.0566C15.2539 51.9629 15.5156 51.8047 15.7227 51.582V49.666H13.748V48.752H16.8418V51.8809ZM22.4668 53C22.4043 52.875 22.3535 52.6523 22.3145 52.332C21.8105 52.8555 21.209 53.1172 20.5098 53.1172C19.8848 53.1172 19.3711 52.9414 18.9688 52.5898C18.5703 52.2344 18.3711 51.7852 18.3711 51.2422C18.3711 50.582 18.6211 50.0703 19.1211 49.707C19.625 49.3398 20.332 49.1562 21.2422 49.1562H22.2969V48.6582C22.2969 48.2793 22.1836 47.9785 21.957 47.7559C21.7305 47.5293 21.3965 47.416 20.9551 47.416C20.5684 47.416 20.2441 47.5137 19.9824 47.709C19.7207 47.9043 19.5898 48.1406 19.5898 48.418H18.5C18.5 48.1016 18.6113 47.7969 18.834 47.5039C19.0605 47.207 19.3652 46.9727 19.748 46.8008C20.1348 46.6289 20.5586 46.543 21.0195 46.543C21.75 46.543 22.3223 46.7266 22.7363 47.0938C23.1504 47.457 23.3652 47.959 23.3809 48.5996V51.5176C23.3809 52.0996 23.4551 52.5625 23.6035 52.9062V53H22.4668ZM20.668 52.1738C21.0078 52.1738 21.3301 52.0859 21.6348 51.9102C21.9395 51.7344 22.1602 51.5059 22.2969 51.2246V49.9238H21.4473C20.1191 49.9238 19.4551 50.3125 19.4551 51.0898C19.4551 51.4297 19.5684 51.6953 19.7949 51.8867C20.0215 52.0781 20.3125 52.1738 20.668 52.1738ZM28.7715 51.3184C28.7715 51.0254 28.6602 50.7988 28.4375 50.6387C28.2188 50.4746 27.834 50.334 27.2832 50.2168C26.7363 50.0996 26.3008 49.959 25.9766 49.7949C25.6562 49.6309 25.418 49.4355 25.2617 49.209C25.1094 48.9824 25.0332 48.7129 25.0332 48.4004C25.0332 47.8809 25.252 47.4414 25.6895 47.082C26.1309 46.7227 26.6934 46.543 27.377 46.543C28.0957 46.543 28.6777 46.7285 29.123 47.0996C29.5723 47.4707 29.7969 47.9453 29.7969 48.5234H28.707C28.707 48.2266 28.5801 47.9707 28.3262 47.7559C28.0762 47.541 27.7598 47.4336 27.377 47.4336C26.9824 47.4336 26.6738 47.5195 26.4512 47.6914C26.2285 47.8633 26.1172 48.0879 26.1172 48.3652C26.1172 48.627 26.2207 48.8242 26.4277 48.957C26.6348 49.0898 27.0078 49.2168 27.5469 49.3379C28.0898 49.459 28.5293 49.6035 28.8652 49.7715C29.2012 49.9395 29.4492 50.1426 29.6094 50.3809C29.7734 50.6152 29.8555 50.9023 29.8555 51.2422C29.8555 51.8086 29.6289 52.2637 29.1758 52.6074C28.7227 52.9473 28.1348 53.1172 27.4121 53.1172C26.9043 53.1172 26.4551 53.0273 26.0645 52.8477C25.6738 52.668 25.3672 52.418 25.1445 52.0977C24.9258 51.7734 24.8164 51.4238 24.8164 51.0488H25.9004C25.9199 51.4121 26.0645 51.7012 26.334 51.916C26.6074 52.127 26.9668 52.2324 27.4121 52.2324C27.8223 52.2324 28.1504 52.1504 28.3965 51.9863C28.6465 51.8184 28.7715 51.5957 28.7715 51.3184Z" fill="#888888"/>
<path opacity="0.5" fill-rule="evenodd" clip-rule="evenodd" d="M12 20H28V23H12V20Z" fill="#00D1C1"/>
<path fill-rule="evenodd" clip-rule="evenodd" d="M16.134 34H23.866C26.7018 34 29 31.7015 29 28.866V15.061C29 11.7135 26.2868 9 22.939 9H17.06C13.713 9 11 11.7137 11 15.061V28.866C11 31.7015 13.2982 34 16.134 34ZM28 28.866C28 31.1492 26.1495 33 23.866 33H16.134C13.8505 33 12 31.1492 12 28.866V15.061C12 12.2659 14.2654 10 17.06 10H22.939C25.7345 10 28 12.2658 28 15.061V28.866Z" fill="black"/>
<path d="M24.5455 36C24.7965 36 25 36.2239 25 36.5C25 36.7761 24.7965 37 24.5455 37H15.4545C15.2035 37 15 36.7761 15 36.5C15 36.2239 15.2035 36 15.4545 36H24.5455Z" fill="black"/>
<path d="M19.5 10C19.2239 10 19 9.77614 19 9.5V8.5C19 8.22386 19.2239 8 19.5 8H20.5C20.7761 8 21 8.22386 21 8.5V9.5C21 9.77614 20.7761 10 20.5 10H19.5Z" fill="black"/>
<path d="M15.5 5C15.2239 5 15 4.77614 15 4.5C15 4.22386 15.2239 4 15.5 4H24.5C24.7761 4 25 4.22386 25 4.5C25 4.77614 24.7761 5 24.5 5H15.5Z" fill="black"/>
<path d="M24 9.5C24 9.77614 23.7761 10 23.5 10C23.2239 10 23 9.77614 23 9.5V4.5C23 4.22386 23.2239 4 23.5 4C23.7761 4 24 4.22386 24 4.5V9.5Z" fill="black"/>
<path d="M17 9.5C17 9.77614 16.7761 10 16.5 10C16.2239 10 16 9.77614 16 9.5V4.5C16 4.22386 16.2239 4 16.5 4C16.7761 4 17 4.22386 17 4.5V9.5Z" fill="black"/>
</svg>
