<svg width="47" height="58" viewBox="0 0 47 58" fill="none" xmlns="http://www.w3.org/2000/svg">
<path d="M3.02148 53.0801H7.06445V54H1.89062V45.4688H3.02148V53.0801ZM12.0918 54C12.0293 53.875 11.9785 53.6523 11.9395 53.332C11.4355 53.8555 10.834 54.1172 10.1348 54.1172C9.50977 54.1172 8.99609 53.9414 8.59375 53.5898C8.19531 53.2344 7.99609 52.7852 7.99609 52.2422C7.99609 51.582 8.24609 51.0703 8.74609 50.707C9.25 50.3398 9.95703 50.1562 10.8672 50.1562H11.9219V49.6582C11.9219 49.2793 11.8086 48.9785 11.582 48.7559C11.3555 48.5293 11.0215 48.416 10.5801 48.416C10.1934 48.416 9.86914 48.5137 9.60742 48.709C9.3457 48.9043 9.21484 49.1406 9.21484 49.418H8.125C8.125 49.1016 8.23633 48.7969 8.45898 48.5039C8.68555 48.207 8.99023 47.9727 9.37305 47.8008C9.75977 47.6289 10.1836 47.543 10.6445 47.543C11.375 47.543 11.9473 47.7266 12.3613 48.0938C12.7754 48.457 12.9902 48.959 13.0059 49.5996V52.5176C13.0059 53.0996 13.0801 53.5625 13.2285 53.9062V54H12.0918ZM10.293 53.1738C10.6328 53.1738 10.9551 53.0859 11.2598 52.9102C11.5645 52.7344 11.7852 52.5059 11.9219 52.2246V50.9238H11.0723C9.74414 50.9238 9.08008 51.3125 9.08008 52.0898C9.08008 52.4297 9.19336 52.6953 9.41992 52.8867C9.64648 53.0781 9.9375 53.1738 10.293 53.1738ZM15.7305 47.6602L15.7656 48.457C16.25 47.8477 16.8828 47.543 17.6641 47.543C19.0039 47.543 19.6797 48.2988 19.6914 49.8105V54H18.6074V49.8047C18.6035 49.3477 18.498 49.0098 18.291 48.791C18.0879 48.5723 17.7695 48.4629 17.3359 48.4629C16.9844 48.4629 16.6758 48.5566 16.4102 48.7441C16.1445 48.9316 15.9375 49.1777 15.7891 49.4824V54H14.7051V47.6602H15.7305ZM21.0625 50.7773C21.0625 49.8047 21.293 49.0234 21.7539 48.4336C22.2148 47.8398 22.8184 47.543 23.5645 47.543C24.3066 47.543 24.8945 47.7969 25.3281 48.3047V45H26.4121V54H25.416L25.3633 53.3203C24.9297 53.8516 24.3262 54.1172 23.5527 54.1172C22.8184 54.1172 22.2188 53.8164 21.7539 53.2148C21.293 52.6133 21.0625 51.8281 21.0625 50.8594V50.7773ZM22.1465 50.9004C22.1465 51.6191 22.2949 52.1816 22.5918 52.5879C22.8887 52.9941 23.2988 53.1973 23.8223 53.1973C24.5098 53.1973 25.0117 52.8887 25.3281 52.2715V49.3594C25.0039 48.7617 24.5059 48.4629 23.834 48.4629C23.3027 48.4629 22.8887 48.668 22.5918 49.0781C22.2949 49.4883 22.1465 50.0957 22.1465 50.9004ZM29.2773 54H28.1934V45H29.2773V54ZM32.1953 54H31.1113V47.6602H32.1953V54ZM31.0234 45.9785C31.0234 45.8027 31.0762 45.6543 31.1816 45.5332C31.291 45.4121 31.4512 45.3516 31.6621 45.3516C31.873 45.3516 32.0332 45.4121 32.1426 45.5332C32.252 45.6543 32.3066 45.8027 32.3066 45.9785C32.3066 46.1543 32.252 46.3008 32.1426 46.418C32.0332 46.5352 31.873 46.5938 31.6621 46.5938C31.4512 46.5938 31.291 46.5352 31.1816 46.418C31.0762 46.3008 31.0234 46.1543 31.0234 45.9785ZM34.9609 47.6602L34.9961 48.457C35.4805 47.8477 36.1133 47.543 36.8945 47.543C38.2344 47.543 38.9102 48.2988 38.9219 49.8105V54H37.8379V49.8047C37.834 49.3477 37.7285 49.0098 37.5215 48.791C37.3184 48.5723 37 48.4629 36.5664 48.4629C36.2148 48.4629 35.9062 48.5566 35.6406 48.7441C35.375 48.9316 35.168 49.1777 35.0195 49.4824V54H33.9355V47.6602H34.9609ZM43.1875 54.1172C42.3281 54.1172 41.6289 53.8359 41.0898 53.2734C40.5508 52.707 40.2812 51.9512 40.2812 51.0059V50.8066C40.2812 50.1777 40.4004 49.6172 40.6387 49.125C40.8809 48.6289 41.2168 48.2422 41.6465 47.9648C42.0801 47.6836 42.5488 47.543 43.0527 47.543C43.877 47.543 44.5176 47.8145 44.9746 48.3574C45.4316 48.9004 45.6602 49.6777 45.6602 50.6895V51.1406H41.3652C41.3809 51.7656 41.5625 52.2715 41.9102 52.6582C42.2617 53.041 42.707 53.2324 43.2461 53.2324C43.6289 53.2324 43.9531 53.1543 44.2188 52.998C44.4844 52.8418 44.7168 52.6348 44.916 52.377L45.5781 52.8926C45.0469 53.709 44.25 54.1172 43.1875 54.1172ZM43.0527 48.4336C42.6152 48.4336 42.248 48.5938 41.9512 48.9141C41.6543 49.2305 41.4707 49.6758 41.4004 50.25H44.5762V50.168C44.5449 49.6172 44.3965 49.1914 44.1309 48.8906C43.8652 48.5859 43.5059 48.4336 43.0527 48.4336Z" fill="#888888"/>
<path fill-rule="evenodd" clip-rule="evenodd" d="M12.361 32H16.64C18.4961 32 20 30.4961 20 28.64V7.36C20 5.50454 18.4958 4 16.64 4H12.361C10.505 4 9 5.50468 9 7.36V28.64C9 30.496 10.5047 32 12.361 32ZM19 28.64C19 29.9439 17.9439 31 16.64 31H12.361C11.0569 31 10 29.9436 10 28.64V7.36C10 6.05701 11.0573 5 12.361 5H16.64C17.9435 5 19 6.05677 19 7.36V28.64Z" fill="black"/>
<path d="M19.5 8C19.2239 8 19 7.77614 19 7.5C19 7.22386 19.2239 7 19.5 7H34.5C36.4331 7 38 8.56686 38 10.5V32.5C38 34.4331 36.4331 36 34.5 36H9.5C7.56686 36 6 34.4331 6 32.5V10.5C6 8.56686 7.56686 7 9.5 7C9.77614 7 10 7.22386 10 7.5C10 7.77614 9.77614 8 9.5 8C8.11914 8 7 9.11914 7 10.5V32.5C7 33.8809 8.11914 35 9.5 35H34.5C35.8809 35 37 33.8809 37 32.5V10.5C37 9.11914 35.8809 8 34.5 8H19.5Z" fill="black"/>
<path fill-rule="evenodd" clip-rule="evenodd" d="M22 16.5C22 16.7761 22.2239 17 22.5 17H32.5C32.7761 17 33 16.7761 33 16.5V12.5C33 12.2239 32.7761 12 32.5 12H22.5C22.2239 12 22 12.2239 22 12.5V16.5ZM32 16H23V13H32V16Z" fill="black"/>
<path opacity="0.5" d="M24.5 23.5H23.5C22.1667 23.5 22.1667 21.5 23.5 21.5H24.5C25.8333 21.5 25.8333 23.5 24.5 23.5Z" fill="#00D1C1"/>
<path opacity="0.5" d="M28.5 23.5H27.5C26.1667 23.5 26.1667 21.5 27.5 21.5H28.5C29.8333 21.5 29.8333 23.5 28.5 23.5Z" fill="#00D1C1"/>
<path opacity="0.5" d="M32.5 23.5H31.5C30.1667 23.5 30.1667 21.5 31.5 21.5H32.5C33.8333 21.5 33.8333 23.5 32.5 23.5Z" fill="#00D1C1"/>
<path opacity="0.5" d="M24.5 27.5H23.5C22.1667 27.5 22.1667 25.5 23.5 25.5H24.5C25.8333 25.5 25.8333 27.5 24.5 27.5Z" fill="#00D1C1"/>
<path opacity="0.5" d="M28.5 27.5H27.5C26.1667 27.5 26.1667 25.5 27.5 25.5H28.5C29.8333 25.5 29.8333 27.5 28.5 27.5Z" fill="#00D1C1"/>
<path opacity="0.5" d="M32.5 27.5H31.5C30.1667 27.5 30.1667 25.5 31.5 25.5H32.5C33.8333 25.5 33.8333 27.5 32.5 27.5Z" fill="#00D1C1"/>
<path opacity="0.5" d="M24.5 31.5H23.5C22.1667 31.5 22.1667 29.5 23.5 29.5H24.5C25.8333 29.5 25.8333 31.5 24.5 31.5Z" fill="#00D1C1"/>
<path opacity="0.5" d="M28.5 31.5H27.5C26.1667 31.5 26.1667 29.5 27.5 29.5H28.5C29.8333 29.5 29.8333 31.5 28.5 31.5Z" fill="#00D1C1"/>
<path opacity="0.5" d="M32.5 31.5H31.5C30.1667 31.5 30.1667 29.5 31.5 29.5H32.5C33.8333 29.5 33.8333 31.5 32.5 31.5Z" fill="#00D1C1"/>
</svg>
