<svg width="42" height="58" viewBox="0 0 42 58" fill="none" xmlns="http://www.w3.org/2000/svg">
<path d="M2.69531 50.6602V54H1.57031V45.4688H4.7168C5.65039 45.4688 6.38086 45.707 6.9082 46.1836C7.43945 46.6602 7.70508 47.291 7.70508 48.0762C7.70508 48.9043 7.44531 49.543 6.92578 49.9922C6.41016 50.4375 5.66992 50.6602 4.70508 50.6602H2.69531ZM2.69531 49.7402H4.7168C5.31836 49.7402 5.7793 49.5996 6.09961 49.3184C6.41992 49.0332 6.58008 48.623 6.58008 48.0879C6.58008 47.5801 6.41992 47.1738 6.09961 46.8691C5.7793 46.5645 5.33984 46.4062 4.78125 46.3945H2.69531V49.7402ZM12.0352 48.6328C11.8711 48.6055 11.6934 48.5918 11.502 48.5918C10.791 48.5918 10.3086 48.8945 10.0547 49.5V54H8.9707V47.6602H10.0254L10.043 48.3926C10.3984 47.8262 10.9023 47.543 11.5547 47.543C11.7656 47.543 11.9258 47.5703 12.0352 47.625V48.6328ZM15.5508 54.1172C14.6914 54.1172 13.9922 53.8359 13.4531 53.2734C12.9141 52.707 12.6445 51.9512 12.6445 51.0059V50.8066C12.6445 50.1777 12.7637 49.6172 13.002 49.125C13.2441 48.6289 13.5801 48.2422 14.0098 47.9648C14.4434 47.6836 14.9121 47.543 15.416 47.543C16.2402 47.543 16.8809 47.8145 17.3379 48.3574C17.7949 48.9004 18.0234 49.6777 18.0234 50.6895V51.1406H13.7285C13.7441 51.7656 13.9258 52.2715 14.2734 52.6582C14.625 53.041 15.0703 53.2324 15.6094 53.2324C15.9922 53.2324 16.3164 53.1543 16.582 52.998C16.8477 52.8418 17.0801 52.6348 17.2793 52.377L17.9414 52.8926C17.4102 53.709 16.6133 54.1172 15.5508 54.1172ZM15.416 48.4336C14.9785 48.4336 14.6113 48.5938 14.3145 48.9141C14.0176 49.2305 13.834 49.6758 13.7637 50.25H16.9395V50.168C16.9082 49.6172 16.7598 49.1914 16.4941 48.8906C16.2285 48.5859 15.8691 48.4336 15.416 48.4336ZM24.6387 50.9004C24.6387 51.8652 24.418 52.6426 23.9766 53.2324C23.5352 53.8223 22.9375 54.1172 22.1836 54.1172C21.4141 54.1172 20.8086 53.873 20.3672 53.3848V56.4375H19.2832V47.6602H20.2734L20.3262 48.3633C20.7676 47.8164 21.3809 47.543 22.166 47.543C22.9277 47.543 23.5293 47.8301 23.9707 48.4043C24.416 48.9785 24.6387 49.7773 24.6387 50.8008V50.9004ZM23.5547 50.7773C23.5547 50.0625 23.4023 49.498 23.0977 49.084C22.793 48.6699 22.375 48.4629 21.8438 48.4629C21.1875 48.4629 20.6953 48.7539 20.3672 49.3359V52.3652C20.6914 52.9434 21.1875 53.2324 21.8555 53.2324C22.375 53.2324 22.7871 53.0273 23.0918 52.6172C23.4004 52.2031 23.5547 51.5898 23.5547 50.7773ZM29.9355 54C29.873 53.875 29.8223 53.6523 29.7832 53.332C29.2793 53.8555 28.6777 54.1172 27.9785 54.1172C27.3535 54.1172 26.8398 53.9414 26.4375 53.5898C26.0391 53.2344 25.8398 52.7852 25.8398 52.2422C25.8398 51.582 26.0898 51.0703 26.5898 50.707C27.0938 50.3398 27.8008 50.1562 28.7109 50.1562H29.7656V49.6582C29.7656 49.2793 29.6523 48.9785 29.4258 48.7559C29.1992 48.5293 28.8652 48.416 28.4238 48.416C28.0371 48.416 27.7129 48.5137 27.4512 48.709C27.1895 48.9043 27.0586 49.1406 27.0586 49.418H25.9688C25.9688 49.1016 26.0801 48.7969 26.3027 48.5039C26.5293 48.207 26.834 47.9727 27.2168 47.8008C27.6035 47.6289 28.0273 47.543 28.4883 47.543C29.2188 47.543 29.791 47.7266 30.2051 48.0938C30.6191 48.457 30.834 48.959 30.8496 49.5996V52.5176C30.8496 53.0996 30.9238 53.5625 31.0723 53.9062V54H29.9355ZM28.1367 53.1738C28.4766 53.1738 28.7988 53.0859 29.1035 52.9102C29.4082 52.7344 29.6289 52.5059 29.7656 52.2246V50.9238H28.916C27.5879 50.9238 26.9238 51.3125 26.9238 52.0898C26.9238 52.4297 27.0371 52.6953 27.2637 52.8867C27.4902 53.0781 27.7812 53.1738 28.1367 53.1738ZM33.7266 54H32.6426V47.6602H33.7266V54ZM32.5547 45.9785C32.5547 45.8027 32.6074 45.6543 32.7129 45.5332C32.8223 45.4121 32.9824 45.3516 33.1934 45.3516C33.4043 45.3516 33.5645 45.4121 33.6738 45.5332C33.7832 45.6543 33.8379 45.8027 33.8379 45.9785C33.8379 46.1543 33.7832 46.3008 33.6738 46.418C33.5645 46.5352 33.4043 46.5938 33.1934 46.5938C32.9824 46.5938 32.8223 46.5352 32.7129 46.418C32.6074 46.3008 32.5547 46.1543 32.5547 45.9785ZM35.2031 50.7773C35.2031 49.8047 35.4336 49.0234 35.8945 48.4336C36.3555 47.8398 36.959 47.543 37.7051 47.543C38.4473 47.543 39.0352 47.7969 39.4688 48.3047V45H40.5527V54H39.5566L39.5039 53.3203C39.0703 53.8516 38.4668 54.1172 37.6934 54.1172C36.959 54.1172 36.3594 53.8164 35.8945 53.2148C35.4336 52.6133 35.2031 51.8281 35.2031 50.8594V50.7773ZM36.2871 50.9004C36.2871 51.6191 36.4355 52.1816 36.7324 52.5879C37.0293 52.9941 37.4395 53.1973 37.9629 53.1973C38.6504 53.1973 39.1523 52.8887 39.4688 52.2715V49.3594C39.1445 48.7617 38.6465 48.4629 37.9746 48.4629C37.4434 48.4629 37.0293 48.668 36.7324 49.0781C36.4355 49.4883 36.2871 50.0957 36.2871 50.9004Z" fill="#888888"/>
<path fill-rule="evenodd" clip-rule="evenodd" d="M23.9834 19.4297C23.9544 19.3707 23.8924 19.3327 23.8234 19.3327H21.7324L23.7964 16.2557C23.8314 16.2037 23.8334 16.1397 23.8014 16.0857C23.7704 16.0337 23.7114 15.9997 23.6474 15.9997H20.8234C20.7564 15.9997 20.6954 16.0357 20.6664 16.0917L18.0184 21.0917C17.9914 21.1437 17.9944 21.2047 18.0264 21.2537C18.0584 21.3037 18.1154 21.3327 18.1764 21.3327H19.9914L18.0134 25.7687C17.9804 25.8447 18.0094 25.9327 18.0844 25.9757C18.1134 25.9917 18.1444 25.9997 18.1764 25.9997C18.2264 25.9997 18.2774 25.9797 18.3114 25.9407L23.9594 19.6077C24.0034 19.5577 24.0124 19.4887 23.9834 19.4297Z" fill="#00D3C1" fill-opacity="0.5"/>
<path fill-rule="evenodd" clip-rule="evenodd" d="M16 37H26C28.8868 37 31 34.8646 31 32V9C31 6.13542 28.8868 4 26 4H16C13.1132 4 11 6.13542 11 9V32C11 34.8646 13.1132 37 16 37ZM30 32C30 34.3146 28.3322 36 26 36H16C13.6678 36 12 34.3146 12 32V9C12 6.68538 13.6678 5 16 5H26C28.3322 5 30 6.68538 30 9V32Z" fill="black"/>
<path d="M12 32C11.2239 32 11 31.7761 11 32C11 31.2239 11.2239 31 12 31H31C30.7761 31 31 31.2239 31 32C31 31.7761 30.7761 32 31 32H12Z" fill="black"/>
<path d="M12 11C11.2239 11 11 10.7761 11 11C11 10.2239 11.2239 10 12 10H31C30.7761 10 31 10.2239 31 11C31 10.7761 30.7761 11 31 11H12Z" fill="black"/>
</svg>
