<svg width="40" height="58" viewBox="0 0 40 58" fill="none" xmlns="http://www.w3.org/2000/svg">
<path d="M8.16211 51.3105L8.32617 52.4355L8.56641 51.4219L10.2539 45.4688H11.2031L12.8496 51.4219L13.084 52.4531L13.2656 51.3047L14.5898 45.4688H15.7207L13.6523 54H12.627L10.8691 47.7832L10.7344 47.1328L10.5996 47.7832L8.77734 54H7.75195L5.68945 45.4688H6.81445L8.16211 51.3105ZM20.5195 54C20.457 53.875 20.4062 53.6523 20.3672 53.332C19.8633 53.8555 19.2617 54.1172 18.5625 54.1172C17.9375 54.1172 17.4238 53.9414 17.0215 53.5898C16.623 53.2344 16.4238 52.7852 16.4238 52.2422C16.4238 51.582 16.6738 51.0703 17.1738 50.707C17.6777 50.3398 18.3848 50.1562 19.2949 50.1562H20.3496V49.6582C20.3496 49.2793 20.2363 48.9785 20.0098 48.7559C19.7832 48.5293 19.4492 48.416 19.0078 48.416C18.6211 48.416 18.2969 48.5137 18.0352 48.709C17.7734 48.9043 17.6426 49.1406 17.6426 49.418H16.5527C16.5527 49.1016 16.6641 48.7969 16.8867 48.5039C17.1133 48.207 17.418 47.9727 17.8008 47.8008C18.1875 47.6289 18.6113 47.543 19.0723 47.543C19.8027 47.543 20.375 47.7266 20.7891 48.0938C21.2031 48.457 21.418 48.959 21.4336 49.5996V52.5176C21.4336 53.0996 21.5078 53.5625 21.6562 53.9062V54H20.5195ZM18.7207 53.1738C19.0605 53.1738 19.3828 53.0859 19.6875 52.9102C19.9922 52.7344 20.2129 52.5059 20.3496 52.2246V50.9238H19.5C18.1719 50.9238 17.5078 51.3125 17.5078 52.0898C17.5078 52.4297 17.6211 52.6953 17.8477 52.8867C18.0742 53.0781 18.3652 53.1738 18.7207 53.1738ZM24.6035 46.125V47.6602H25.7871V48.498H24.6035V52.4297C24.6035 52.6836 24.6562 52.875 24.7617 53.0039C24.8672 53.1289 25.0469 53.1914 25.3008 53.1914C25.4258 53.1914 25.5977 53.168 25.8164 53.1211V54C25.5312 54.0781 25.2539 54.1172 24.9844 54.1172C24.5 54.1172 24.1348 53.9707 23.8887 53.6777C23.6426 53.3848 23.5195 52.9688 23.5195 52.4297V48.498H22.3652V47.6602H23.5195V46.125H24.6035ZM29.6895 54.1172C28.8301 54.1172 28.1309 53.8359 27.5918 53.2734C27.0527 52.707 26.7832 51.9512 26.7832 51.0059V50.8066C26.7832 50.1777 26.9023 49.6172 27.1406 49.125C27.3828 48.6289 27.7188 48.2422 28.1484 47.9648C28.582 47.6836 29.0508 47.543 29.5547 47.543C30.3789 47.543 31.0195 47.8145 31.4766 48.3574C31.9336 48.9004 32.1621 49.6777 32.1621 50.6895V51.1406H27.8672C27.8828 51.7656 28.0645 52.2715 28.4121 52.6582C28.7637 53.041 29.209 53.2324 29.748 53.2324C30.1309 53.2324 30.4551 53.1543 30.7207 52.998C30.9863 52.8418 31.2188 52.6348 31.418 52.377L32.0801 52.8926C31.5488 53.709 30.752 54.1172 29.6895 54.1172ZM29.5547 48.4336C29.1172 48.4336 28.75 48.5938 28.4531 48.9141C28.1562 49.2305 27.9727 49.6758 27.9023 50.25H31.0781V50.168C31.0469 49.6172 30.8984 49.1914 30.6328 48.8906C30.3672 48.5859 30.0078 48.4336 29.5547 48.4336ZM36.4863 48.6328C36.3223 48.6055 36.1445 48.5918 35.9531 48.5918C35.2422 48.5918 34.7598 48.8945 34.5059 49.5V54H33.4219V47.6602H34.4766L34.4941 48.3926C34.8496 47.8262 35.3535 47.543 36.0059 47.543C36.2168 47.543 36.377 47.5703 36.4863 47.625V48.6328Z" fill="#888888"/>
<path d="M15 23V17.5C15 16.6716 15.6711 16 16.5 16H30.5C30.7761 16 31 16.2239 31 16.5C31 16.7761 30.7761 17 30.5 17H16.5C16.2236 17 16 17.2237 16 17.5V23.5C16 23.7761 15.7761 24 15.5 24H9.5C9.22386 24 9 23.7761 9 23.5V13.5C9 11.5669 10.5669 10 12.5 10H30.5C30.7761 10 31 10.2239 31 10.5C31 10.7761 30.7761 11 30.5 11H12.5C11.1191 11 10 12.1191 10 13.5V23H15Z" fill="black"/>
<path fill-rule="evenodd" clip-rule="evenodd" d="M15 4C13.8956 4 13 4.89515 13 6C13 7.10485 13.8956 8 15 8H25C26.1044 8 27 7.10485 27 6C27 4.89515 26.1044 4 25 4H15ZM15 7C14.4477 7 14 6.55246 14 6C14 5.44754 14.4477 5 15 5H25C25.5523 5 26 5.44754 26 6C26 6.55246 25.5523 7 25 7H15Z" fill="black"/>
<path fill-rule="evenodd" clip-rule="evenodd" d="M18 10.5C18 10.7761 18.2239 11 18.5 11H21.5C21.7761 11 22 10.7761 22 10.5V7.5C22 7.22386 21.7761 7 21.5 7H18.5C18.2239 7 18 7.22386 18 7.5V10.5ZM21 8V10H19V8H21Z" fill="black"/>
<path opacity="0.5" fill-rule="evenodd" clip-rule="evenodd" d="M12.5 37C10.5698 37 9 35.428 9 33.4949C9 31.7299 11.772 27.6608 12.0886 27.2018C12.2743 26.9327 12.7257 26.9327 12.9114 27.2018C13.228 27.6608 16 31.7299 16 33.4949C16 35.428 14.4302 37 12.5 37Z" fill="#00D1C1"/>
</svg>
