<svg width="175" height="32" viewBox="0 0 175 32" fill="none" xmlns="http://www.w3.org/2000/svg">
<path d="M11.3379 16.8359L13.3066 7.20312H15.5127L12.5596 20H10.4326L7.99805 10.6572L5.51074 20H3.375L0.421875 7.20312H2.62793L4.61426 16.8184L7.05762 7.20312H8.9209L11.3379 16.8359ZM20.8389 20.1758C19.4854 20.1758 18.3867 19.751 17.543 18.9014C16.7051 18.0459 16.2861 16.9092 16.2861 15.4912V15.2275C16.2861 14.2783 16.4678 13.4316 16.8311 12.6875C17.2002 11.9375 17.7158 11.3545 18.3779 10.9385C19.04 10.5225 19.7783 10.3145 20.5928 10.3145C21.8877 10.3145 22.8867 10.7275 23.5898 11.5537C24.2988 12.3799 24.6533 13.5488 24.6533 15.0605V15.9219H18.4395C18.5039 16.707 18.7646 17.3281 19.2217 17.7852C19.6846 18.2422 20.2646 18.4707 20.9619 18.4707C21.9404 18.4707 22.7373 18.0752 23.3525 17.2842L24.5039 18.3828C24.123 18.9512 23.6133 19.3936 22.9746 19.71C22.3418 20.0205 21.6299 20.1758 20.8389 20.1758ZM20.584 12.0283C19.998 12.0283 19.5234 12.2334 19.1602 12.6436C18.8027 13.0537 18.5742 13.625 18.4746 14.3574H22.5439V14.1992C22.4971 13.4844 22.3066 12.9453 21.9727 12.582C21.6387 12.2129 21.1758 12.0283 20.584 12.0283ZM28.5908 20H26.4551V6.5H28.5908V20ZM34.8311 18.4707C35.3643 18.4707 35.8066 18.3154 36.1582 18.0049C36.5098 17.6943 36.6973 17.3105 36.7207 16.8535H38.7334C38.71 17.4453 38.5254 17.999 38.1797 18.5146C37.834 19.0244 37.3652 19.4287 36.7734 19.7275C36.1816 20.0264 35.543 20.1758 34.8574 20.1758C33.5273 20.1758 32.4727 19.7451 31.6934 18.8838C30.9141 18.0225 30.5244 16.833 30.5244 15.3154V15.0957C30.5244 13.6484 30.9111 12.4912 31.6846 11.624C32.458 10.751 33.5127 10.3145 34.8486 10.3145C35.9795 10.3145 36.8994 10.6455 37.6084 11.3076C38.3232 11.9639 38.6982 12.8281 38.7334 13.9004H36.7207C36.6973 13.3555 36.5098 12.9072 36.1582 12.5557C35.8125 12.2041 35.3701 12.0283 34.8311 12.0283C34.1396 12.0283 33.6064 12.2803 33.2314 12.7842C32.8564 13.2822 32.666 14.041 32.6602 15.0605V15.4033C32.6602 16.4346 32.8447 17.2051 33.2139 17.7148C33.5889 18.2188 34.1279 18.4707 34.8311 18.4707ZM39.9463 15.1572C39.9463 14.2256 40.1309 13.3877 40.5 12.6436C40.8691 11.8936 41.3877 11.3193 42.0557 10.9209C42.7236 10.5166 43.4912 10.3145 44.3584 10.3145C45.6416 10.3145 46.6816 10.7275 47.4785 11.5537C48.2812 12.3799 48.7148 13.4756 48.7793 14.8408L48.7881 15.3418C48.7881 16.2793 48.6064 17.1172 48.2432 17.8555C47.8857 18.5938 47.3701 19.165 46.6963 19.5693C46.0283 19.9736 45.2549 20.1758 44.376 20.1758C43.0342 20.1758 41.959 19.7305 41.1504 18.8398C40.3477 17.9434 39.9463 16.751 39.9463 15.2627V15.1572ZM42.082 15.3418C42.082 16.3203 42.2842 17.0879 42.6885 17.6445C43.0928 18.1953 43.6553 18.4707 44.376 18.4707C45.0967 18.4707 45.6562 18.1895 46.0547 17.627C46.459 17.0645 46.6611 16.2412 46.6611 15.1572C46.6611 14.1963 46.4531 13.4346 46.0371 12.8721C45.627 12.3096 45.0674 12.0283 44.3584 12.0283C43.6611 12.0283 43.1074 12.3066 42.6973 12.8633C42.2871 13.4141 42.082 14.2402 42.082 15.3418ZM52.6025 10.4902L52.6641 11.4834C53.332 10.7041 54.2461 10.3145 55.4062 10.3145C56.6777 10.3145 57.5479 10.8008 58.0166 11.7734C58.708 10.8008 59.6807 10.3145 60.9346 10.3145C61.9834 10.3145 62.7627 10.6045 63.2725 11.1846C63.7881 11.7646 64.0518 12.6201 64.0635 13.751V20H61.9277V13.8125C61.9277 13.209 61.7959 12.7666 61.5322 12.4854C61.2686 12.2041 60.832 12.0635 60.2227 12.0635C59.7363 12.0635 59.3379 12.1953 59.0273 12.459C58.7227 12.7168 58.5088 13.0566 58.3857 13.4785L58.3945 20H56.2588V13.7422C56.2295 12.623 55.6582 12.0635 54.5449 12.0635C53.6895 12.0635 53.083 12.4121 52.7256 13.1094V20H50.5898V10.4902H52.6025ZM70.4443 20.1758C69.0908 20.1758 67.9922 19.751 67.1484 18.9014C66.3105 18.0459 65.8916 16.9092 65.8916 15.4912V15.2275C65.8916 14.2783 66.0732 13.4316 66.4365 12.6875C66.8057 11.9375 67.3213 11.3545 67.9834 10.9385C68.6455 10.5225 69.3838 10.3145 70.1982 10.3145C71.4932 10.3145 72.4922 10.7275 73.1953 11.5537C73.9043 12.3799 74.2588 13.5488 74.2588 15.0605V15.9219H68.0449C68.1094 16.707 68.3701 17.3281 68.8271 17.7852C69.29 18.2422 69.8701 18.4707 70.5674 18.4707C71.5459 18.4707 72.3428 18.0752 72.958 17.2842L74.1094 18.3828C73.7285 18.9512 73.2188 19.3936 72.5801 19.71C71.9473 20.0205 71.2354 20.1758 70.4443 20.1758ZM70.1895 12.0283C69.6035 12.0283 69.1289 12.2334 68.7656 12.6436C68.4082 13.0537 68.1797 13.625 68.0801 14.3574H72.1494V14.1992C72.1025 13.4844 71.9121 12.9453 71.5781 12.582C71.2441 12.2129 70.7812 12.0283 70.1895 12.0283ZM83.083 8.17871V10.4902H84.7617V12.0723H83.083V17.3809C83.083 17.7441 83.1533 18.0078 83.2939 18.1719C83.4404 18.3301 83.6982 18.4092 84.0674 18.4092C84.3135 18.4092 84.5625 18.3799 84.8145 18.3213V19.9736C84.3281 20.1084 83.8594 20.1758 83.4082 20.1758C81.7676 20.1758 80.9473 19.2705 80.9473 17.46V12.0723H79.3828V10.4902H80.9473V8.17871H83.083ZM85.7373 15.1572C85.7373 14.2256 85.9219 13.3877 86.291 12.6436C86.6602 11.8936 87.1787 11.3193 87.8467 10.9209C88.5146 10.5166 89.2822 10.3145 90.1494 10.3145C91.4326 10.3145 92.4727 10.7275 93.2695 11.5537C94.0723 12.3799 94.5059 13.4756 94.5703 14.8408L94.5791 15.3418C94.5791 16.2793 94.3975 17.1172 94.0342 17.8555C93.6768 18.5938 93.1611 19.165 92.4873 19.5693C91.8193 19.9736 91.0459 20.1758 90.167 20.1758C88.8252 20.1758 87.75 19.7305 86.9414 18.8398C86.1387 17.9434 85.7373 16.751 85.7373 15.2627V15.1572ZM87.873 15.3418C87.873 16.3203 88.0752 17.0879 88.4795 17.6445C88.8838 18.1953 89.4463 18.4707 90.167 18.4707C90.8877 18.4707 91.4473 18.1895 91.8457 17.627C92.25 17.0645 92.4521 16.2412 92.4521 15.1572C92.4521 14.1963 92.2441 13.4346 91.8281 12.8721C91.418 12.3096 90.8584 12.0283 90.1494 12.0283C89.4521 12.0283 88.8984 12.3066 88.4883 12.8633C88.0781 13.4141 87.873 14.2402 87.873 15.3418Z" fill="white"/>
<path d="M118.485 7.61188L120.911 5.21361L120.392 4.70088C116.144 0.499772 109.236 0.499772 104.987 4.70088C100.922 8.72005 100.755 15.1706 104.485 19.4048L102.043 21.7865L102.562 22.2992C106.81 26.5003 113.718 26.5003 117.967 22.2992C122.048 18.28 122.216 11.8295 118.485 7.61188ZM106.024 5.74289C109.503 2.28607 115.09 2.12067 118.77 5.23015L117.382 6.60296C114.438 4.22123 110.105 4.38662 107.362 7.09915C104.619 9.81168 104.452 14.112 106.86 17.0065L105.505 18.3462C102.361 14.6909 102.528 9.18316 106.024 5.74289ZM116.913 21.2572C113.417 24.714 107.847 24.8794 104.151 21.7534L105.539 20.3806C108.483 22.7623 112.815 22.5969 115.558 19.8844C118.302 17.1719 118.469 12.8715 116.06 9.97707L117.415 8.63735C120.576 12.3092 120.409 17.8169 116.913 21.2572Z" fill="white"/>
<path d="M139.378 11.1012H141.552V12.1432C141.552 12.474 141.552 12.7552 141.552 12.7552C142.656 10.5554 146.336 10.0757 147.156 12.7386H147.189C147.942 11.2666 149.798 10.5554 151.371 11.035C152.826 11.4816 153.244 12.9371 153.244 14.2934V20.0492H150.986V14.7234C150.986 13.7972 150.735 12.8544 149.598 12.9371C148.494 13.0033 147.791 13.9791 147.557 14.9715C147.473 15.3188 147.457 15.7158 147.457 16.1293V20.0658H145.182V14.7234C145.182 13.731 144.897 12.8048 143.693 12.9536C142.623 13.086 141.97 14.0287 141.736 14.988C141.652 15.3188 141.636 15.7323 141.636 16.1293V20.0658H139.378V11.1012Z" fill="white"/>
<path d="M169.469 18.1641C168.884 18.1641 168.549 17.916 168.549 16.9401V9.57993V7.59515L166.308 9.81149V17.2709C166.308 19.8346 167.846 20.1489 169.101 20.1489C169.469 20.1489 169.804 20.0992 169.804 20.0992V18.1475C169.804 18.1475 169.636 18.1641 169.469 18.1641Z" fill="white"/>
<path d="M163.648 12.6732C162.862 11.3996 161.423 10.7711 159.918 10.9199C158.965 11.0192 157.944 11.5154 157.459 12.3754C157.459 12.3754 157.459 12.0943 157.459 11.7635V11.1184H155.402V24.3172L157.66 22.0843V19.8349C157.66 19.3718 157.66 19.0575 157.66 19.0575C158.413 20.1491 159.918 20.4634 161.156 20.1988C164.418 19.4876 165.22 15.1872 163.648 12.6732ZM159.851 18.3959C158.463 18.3959 157.693 17.1389 157.61 15.8984C157.543 14.8564 157.827 13.6325 158.814 13.0866C159.634 12.6401 160.704 12.7559 161.357 13.4174C162.795 14.8564 162.277 18.3959 159.851 18.3959Z" fill="white"/>
<path d="M137.203 11.1017H134.945V20.0663H137.203V11.1017Z" fill="white"/>
<path d="M132.921 15.8655C132.569 14.3108 131.081 13.5499 129.709 12.9876C128.806 12.6072 127.016 12.1441 127.066 10.9036C127.117 9.66309 128.572 9.34884 129.575 9.51424C130.144 9.61347 130.696 9.82849 131.181 10.1427L132.687 8.65417C131.332 7.36406 128.973 7.04981 127.267 7.66178C125.427 8.32337 124.156 10.3578 125.009 12.2433C125.628 13.6326 127.234 14.2115 128.538 14.7739C129.542 15.2039 131.315 15.9648 130.512 17.3706C129.943 18.3796 128.488 18.2638 127.551 17.933C127.033 17.7511 126.514 17.4699 126.063 17.1391L124.557 18.6277C125.879 19.9508 128.037 20.4967 129.843 20.1659C131.9 19.802 133.389 17.9495 132.921 15.8655Z" fill="white"/>
</svg>
