<svg width="220" height="37" viewBox="0 0 220 37" fill="none" xmlns="http://www.w3.org/2000/svg">
<path d="M27.38 10.12C26.9667 10.12 26.5867 10.0433 26.24 9.89C25.8933 9.73667 25.59 9.51667 25.33 9.23C25.0767 8.93667 24.8767 8.58 24.73 8.16C24.59 7.73333 24.52 7.25333 24.52 6.72C24.52 6.19333 24.5933 5.72 24.74 5.3C24.8867 4.88 25.09 4.52333 25.35 4.23C25.61 3.93667 25.9167 3.71333 26.27 3.56C26.6233 3.4 27.01 3.32 27.43 3.32C27.83 3.32 28.18 3.40333 28.48 3.57C28.7867 3.73 29.0367 3.91667 29.23 4.13L28.78 4.67C28.6067 4.48333 28.41 4.33333 28.19 4.22C27.97 4.10667 27.72 4.05 27.44 4.05C27.1267 4.05 26.8433 4.11333 26.59 4.24C26.3367 4.36 26.12 4.53667 25.94 4.77C25.76 4.99667 25.62 5.27333 25.52 5.6C25.4267 5.92667 25.38 6.29333 25.38 6.7C25.38 7.11333 25.4267 7.48667 25.52 7.82C25.62 8.14667 25.7567 8.42667 25.93 8.66C26.1033 8.89333 26.3133 9.07333 26.56 9.2C26.8133 9.32667 27.0967 9.39 27.41 9.39C27.73 9.39 28.01 9.32667 28.25 9.2C28.49 9.06667 28.7167 8.88333 28.93 8.65L29.39 9.17C29.13 9.47 28.8367 9.70333 28.51 9.87C28.1833 10.0367 27.8067 10.12 27.38 10.12ZM31.4029 10.12C31.0896 10.12 30.8662 10.0267 30.7329 9.84C30.5996 9.65333 30.5329 9.38 30.5329 9.02V2.88H31.3529V9.08C31.3529 9.21333 31.3762 9.30667 31.4229 9.36C31.4696 9.41333 31.5229 9.44 31.5829 9.44C31.6096 9.44 31.6329 9.44 31.6529 9.44C31.6796 9.44 31.7162 9.43333 31.7629 9.42L31.8729 10.04C31.8196 10.0667 31.7562 10.0867 31.6829 10.1C31.6096 10.1133 31.5162 10.12 31.4029 10.12ZM35.0517 10.12C34.7251 10.12 34.4184 10.0633 34.1317 9.95C33.8517 9.83 33.6051 9.66333 33.3917 9.45C33.1851 9.23 33.0217 8.96333 32.9017 8.65C32.7817 8.33667 32.7217 7.98 32.7217 7.58C32.7217 7.18 32.7817 6.82333 32.9017 6.51C33.0284 6.19 33.1917 5.92 33.3917 5.7C33.5984 5.48 33.8317 5.31333 34.0917 5.2C34.3517 5.08 34.6217 5.02 34.9017 5.02C35.2084 5.02 35.4817 5.07333 35.7217 5.18C35.9684 5.28667 36.1717 5.44 36.3317 5.64C36.4984 5.84 36.6251 6.08 36.7117 6.36C36.7984 6.64 36.8417 6.95333 36.8417 7.3C36.8417 7.38667 36.8384 7.47333 36.8317 7.56C36.8317 7.64 36.8251 7.71 36.8117 7.77H33.5317C33.5651 8.29 33.7251 8.70333 34.0117 9.01C34.3051 9.31 34.6851 9.46 35.1517 9.46C35.3851 9.46 35.5984 9.42667 35.7917 9.36C35.9917 9.28667 36.1817 9.19333 36.3617 9.08L36.6517 9.62C36.4384 9.75333 36.2017 9.87 35.9417 9.97C35.6817 10.07 35.3851 10.12 35.0517 10.12ZM33.5217 7.18H36.1217C36.1217 6.68667 36.0151 6.31333 35.8017 6.06C35.5951 5.8 35.3017 5.67 34.9217 5.67C34.7484 5.67 34.5817 5.70333 34.4217 5.77C34.2684 5.83667 34.1284 5.93667 34.0017 6.07C33.8751 6.19667 33.7684 6.35333 33.6817 6.54C33.6017 6.72667 33.5484 6.94 33.5217 7.18ZM39.0259 10.12C38.6193 10.12 38.2793 10 38.0059 9.76C37.7393 9.52 37.6059 9.18 37.6059 8.74C37.6059 8.20667 37.8426 7.8 38.3159 7.52C38.7893 7.23333 39.5459 7.03333 40.5859 6.92C40.5859 6.76667 40.5693 6.61667 40.5359 6.47C40.5093 6.32333 40.4593 6.19333 40.3859 6.08C40.3126 5.96667 40.2093 5.87667 40.0759 5.81C39.9493 5.73667 39.7859 5.7 39.5859 5.7C39.3059 5.7 39.0426 5.75333 38.7959 5.86C38.5493 5.96667 38.3293 6.08667 38.1359 6.22L37.8159 5.65C38.0426 5.50333 38.3193 5.36333 38.6459 5.23C38.9726 5.09 39.3326 5.02 39.7259 5.02C40.3193 5.02 40.7493 5.20333 41.0159 5.57C41.2826 5.93 41.4159 6.41333 41.4159 7.02V10H40.7359L40.6659 9.42H40.6359C40.4026 9.61333 40.1526 9.78 39.8859 9.92C39.6193 10.0533 39.3326 10.12 39.0259 10.12ZM39.2659 9.46C39.4993 9.46 39.7193 9.40667 39.9259 9.3C40.1326 9.18667 40.3526 9.02333 40.5859 8.81V7.46C40.1793 7.51333 39.8359 7.57667 39.5559 7.65C39.2826 7.72333 39.0593 7.81 38.8859 7.91C38.7193 8.01 38.5959 8.12667 38.5159 8.26C38.4426 8.38667 38.4059 8.52667 38.4059 8.68C38.4059 8.96 38.4893 9.16 38.6559 9.28C38.8226 9.4 39.0259 9.46 39.2659 9.46ZM42.945 10V5.14H43.625L43.695 6.02H43.725C43.8917 5.71333 44.0917 5.47 44.325 5.29C44.565 5.11 44.825 5.02 45.105 5.02C45.2983 5.02 45.4717 5.05333 45.625 5.12L45.465 5.84C45.385 5.81333 45.3117 5.79333 45.245 5.78C45.1783 5.76667 45.095 5.76 44.995 5.76C44.7883 5.76 44.5717 5.84333 44.345 6.01C44.125 6.17667 43.9317 6.46667 43.765 6.88V10H42.945ZM49.2838 10.12C48.9704 10.12 48.7471 10.0267 48.6138 9.84C48.4804 9.65333 48.4138 9.38 48.4138 9.02V2.88H49.2338V9.08C49.2338 9.21333 49.2571 9.30667 49.3038 9.36C49.3504 9.41333 49.4038 9.44 49.4638 9.44C49.4904 9.44 49.5138 9.44 49.5338 9.44C49.5604 9.44 49.5971 9.43333 49.6438 9.42L49.7538 10.04C49.7004 10.0667 49.6371 10.0867 49.5638 10.1C49.4904 10.1133 49.3971 10.12 49.2838 10.12ZM52.0826 10.12C51.6759 10.12 51.3359 10 51.0626 9.76C50.7959 9.52 50.6626 9.18 50.6626 8.74C50.6626 8.20667 50.8992 7.8 51.3726 7.52C51.8459 7.23333 52.6026 7.03333 53.6426 6.92C53.6426 6.76667 53.6259 6.61667 53.5926 6.47C53.5659 6.32333 53.5159 6.19333 53.4426 6.08C53.3692 5.96667 53.2659 5.87667 53.1326 5.81C53.0059 5.73667 52.8426 5.7 52.6426 5.7C52.3626 5.7 52.0992 5.75333 51.8526 5.86C51.6059 5.96667 51.3859 6.08667 51.1926 6.22L50.8726 5.65C51.0992 5.50333 51.3759 5.36333 51.7026 5.23C52.0292 5.09 52.3892 5.02 52.7826 5.02C53.3759 5.02 53.8059 5.20333 54.0726 5.57C54.3392 5.93 54.4726 6.41333 54.4726 7.02V10H53.7926L53.7226 9.42H53.6926C53.4592 9.61333 53.2092 9.78 52.9426 9.92C52.6759 10.0533 52.3892 10.12 52.0826 10.12ZM52.3226 9.46C52.5559 9.46 52.7759 9.40667 52.9826 9.3C53.1892 9.18667 53.4092 9.02333 53.6426 8.81V7.46C53.2359 7.51333 52.8926 7.57667 52.6126 7.65C52.3392 7.72333 52.1159 7.81 51.9426 7.91C51.7759 8.01 51.6526 8.12667 51.5726 8.26C51.4992 8.38667 51.4626 8.52667 51.4626 8.68C51.4626 8.96 51.5459 9.16 51.7126 9.28C51.8792 9.4 52.0826 9.46 52.3226 9.46ZM57.2716 10.12C56.925 10.12 56.595 10.0567 56.2816 9.93C55.9683 9.80333 55.695 9.64333 55.4616 9.45L55.8716 8.9C56.085 9.07333 56.3016 9.21333 56.5216 9.32C56.7483 9.42667 57.0083 9.48 57.3016 9.48C57.6216 9.48 57.8616 9.40667 58.0216 9.26C58.1816 9.11333 58.2616 8.93333 58.2616 8.72C58.2616 8.59333 58.2283 8.48333 58.1616 8.39C58.095 8.29667 58.0083 8.21667 57.9016 8.15C57.8016 8.07667 57.685 8.01333 57.5516 7.96C57.4183 7.90667 57.285 7.85333 57.1516 7.8C56.9783 7.74 56.805 7.67333 56.6316 7.6C56.4583 7.52 56.3016 7.42667 56.1616 7.32C56.0283 7.20667 55.9183 7.07667 55.8316 6.93C55.745 6.78333 55.7016 6.60667 55.7016 6.4C55.7016 6.20667 55.7383 6.02667 55.8116 5.86C55.8916 5.68667 56.0016 5.54 56.1416 5.42C56.2883 5.29333 56.465 5.19667 56.6716 5.13C56.8783 5.05667 57.1116 5.02 57.3716 5.02C57.6783 5.02 57.9583 5.07333 58.2116 5.18C58.4716 5.28667 58.695 5.41667 58.8816 5.57L58.4916 6.09C58.325 5.96333 58.1516 5.86 57.9716 5.78C57.7916 5.7 57.595 5.66 57.3816 5.66C57.075 5.66 56.8483 5.73 56.7016 5.87C56.5616 6.01 56.4916 6.17333 56.4916 6.36C56.4916 6.47333 56.5216 6.57333 56.5816 6.66C56.6416 6.74 56.7216 6.81333 56.8216 6.88C56.9216 6.94 57.035 6.99667 57.1616 7.05C57.295 7.09667 57.4316 7.14667 57.5716 7.2C57.745 7.26667 57.9183 7.33667 58.0916 7.41C58.2716 7.48333 58.4316 7.57667 58.5716 7.69C58.7116 7.79667 58.825 7.93 58.9116 8.09C59.005 8.25 59.0516 8.44333 59.0516 8.67C59.0516 8.87 59.0116 9.05667 58.9316 9.23C58.8583 9.40333 58.745 9.55667 58.5916 9.69C58.445 9.82333 58.2583 9.92667 58.0316 10C57.8116 10.08 57.5583 10.12 57.2716 10.12ZM61.5258 10.12C61.2658 10.12 61.0458 10.08 60.8658 10C60.6924 9.92 60.5491 9.81 60.4358 9.67C60.3291 9.53 60.2524 9.36 60.2058 9.16C60.1591 8.96 60.1358 8.74 60.1358 8.5V5.81H59.4158V5.19L60.1758 5.14L60.2758 3.78H60.9658V5.14H62.2758V5.81H60.9658V8.51C60.9658 8.81 61.0191 9.04333 61.1258 9.21C61.2391 9.37 61.4358 9.45 61.7158 9.45C61.8024 9.45 61.8958 9.43667 61.9958 9.41C62.0958 9.38333 62.1858 9.35333 62.2658 9.32L62.4258 9.94C62.2924 9.98667 62.1458 10.0267 61.9858 10.06C61.8324 10.1 61.6791 10.12 61.5258 10.12ZM65.3766 10V5.14H66.0566L66.1266 5.84H66.1566C66.37 5.60667 66.6 5.41333 66.8466 5.26C67.1 5.1 67.3733 5.02 67.6666 5.02C68.04 5.02 68.33 5.10333 68.5366 5.27C68.75 5.43 68.9066 5.65667 69.0066 5.95C69.26 5.67 69.5133 5.44667 69.7666 5.28C70.0266 5.10667 70.3066 5.02 70.6066 5.02C71.1066 5.02 71.4766 5.18 71.7166 5.5C71.9633 5.82 72.0866 6.29333 72.0866 6.92V10H71.2666V7.03C71.2666 6.57 71.1933 6.24 71.0466 6.04C70.9 5.83333 70.6733 5.73 70.3666 5.73C70 5.73 69.5933 5.98 69.1466 6.48V10H68.3266V7.03C68.3266 6.57 68.2533 6.24 68.1066 6.04C67.96 5.83333 67.73 5.73 67.4166 5.73C67.05 5.73 66.6433 5.98 66.1966 6.48V10H65.3766ZM75.5577 10.12C75.2577 10.12 74.971 10.0633 74.6977 9.95C74.431 9.83667 74.1943 9.67333 73.9877 9.46C73.781 9.24 73.6143 8.97333 73.4877 8.66C73.3677 8.34 73.3077 7.98 73.3077 7.58C73.3077 7.17333 73.3677 6.81333 73.4877 6.5C73.6143 6.18 73.781 5.91 73.9877 5.69C74.1943 5.47 74.431 5.30333 74.6977 5.19C74.971 5.07667 75.2577 5.02 75.5577 5.02C75.8577 5.02 76.141 5.07667 76.4077 5.19C76.681 5.30333 76.921 5.47 77.1277 5.69C77.3343 5.91 77.4977 6.18 77.6177 6.5C77.7443 6.81333 77.8077 7.17333 77.8077 7.58C77.8077 7.98 77.7443 8.34 77.6177 8.66C77.4977 8.97333 77.3343 9.24 77.1277 9.46C76.921 9.67333 76.681 9.83667 76.4077 9.95C76.141 10.0633 75.8577 10.12 75.5577 10.12ZM75.5577 9.44C75.7643 9.44 75.9543 9.39667 76.1277 9.31C76.301 9.21667 76.4477 9.09 76.5677 8.93C76.6943 8.76333 76.791 8.56667 76.8577 8.34C76.9243 8.11333 76.9577 7.86 76.9577 7.58C76.9577 7.3 76.9243 7.04667 76.8577 6.82C76.791 6.58667 76.6943 6.38667 76.5677 6.22C76.4477 6.05333 76.301 5.92667 76.1277 5.84C75.9543 5.74667 75.7643 5.7 75.5577 5.7C75.351 5.7 75.161 5.74667 74.9877 5.84C74.8143 5.92667 74.6643 6.05333 74.5377 6.22C74.4177 6.38667 74.3243 6.58667 74.2577 6.82C74.191 7.04667 74.1577 7.3 74.1577 7.58C74.1577 7.86 74.191 8.11333 74.2577 8.34C74.3243 8.56667 74.4177 8.76333 74.5377 8.93C74.6643 9.09 74.8143 9.21667 74.9877 9.31C75.161 9.39667 75.351 9.44 75.5577 9.44ZM79.0876 10V5.14H79.7676L79.8376 5.84H79.8676C80.1009 5.60667 80.3442 5.41333 80.5976 5.26C80.8576 5.1 81.1576 5.02 81.4976 5.02C82.0109 5.02 82.3842 5.18 82.6176 5.5C82.8576 5.82 82.9776 6.29333 82.9776 6.92V10H82.1576V7.03C82.1576 6.57 82.0842 6.24 81.9376 6.04C81.7909 5.83333 81.5576 5.73 81.2376 5.73C80.9842 5.73 80.7609 5.79333 80.5676 5.92C80.3742 6.04667 80.1542 6.23333 79.9076 6.48V10H79.0876ZM86.0863 10.12C85.8263 10.12 85.6063 10.08 85.4263 10C85.253 9.92 85.1097 9.81 84.9963 9.67C84.8897 9.53 84.813 9.36 84.7663 9.16C84.7197 8.96 84.6963 8.74 84.6963 8.5V5.81H83.9763V5.19L84.7363 5.14L84.8363 3.78H85.5263V5.14H86.8363V5.81H85.5263V8.51C85.5263 8.81 85.5797 9.04333 85.6863 9.21C85.7997 9.37 85.9963 9.45 86.2763 9.45C86.363 9.45 86.4563 9.43667 86.5563 9.41C86.6563 9.38333 86.7463 9.35333 86.8263 9.32L86.9863 9.94C86.853 9.98667 86.7063 10.0267 86.5463 10.06C86.393 10.1 86.2397 10.12 86.0863 10.12ZM87.9352 10V2.88H88.7552V4.82L88.7252 5.82C88.9586 5.6 89.2019 5.41333 89.4552 5.26C89.7086 5.1 90.0052 5.02 90.3452 5.02C90.8586 5.02 91.2319 5.18 91.4652 5.5C91.7052 5.82 91.8252 6.29333 91.8252 6.92V10H91.0052V7.03C91.0052 6.57 90.9319 6.24 90.7852 6.04C90.6386 5.83333 90.4052 5.73 90.0852 5.73C89.8319 5.73 89.6086 5.79333 89.4152 5.92C89.2219 6.04667 89.0019 6.23333 88.7552 6.48V10H87.9352ZM93.2194 5.69L92.9894 5.31C93.2427 5.14333 93.4294 4.96667 93.5494 4.78C93.676 4.58667 93.7394 4.34667 93.7394 4.06C93.7194 4.06667 93.6927 4.07 93.6594 4.07C93.5194 4.07 93.396 4.02667 93.2894 3.94C93.1827 3.85333 93.1294 3.73 93.1294 3.57C93.1294 3.39667 93.1794 3.26 93.2794 3.16C93.3794 3.06 93.506 3.01 93.6594 3.01C93.8527 3.01 94.006 3.09 94.1194 3.25C94.2327 3.40333 94.2894 3.62667 94.2894 3.92C94.2894 4.32 94.196 4.66667 94.0094 4.96C93.8294 5.24667 93.566 5.49 93.2194 5.69ZM96.4513 10.12C96.1047 10.12 95.7747 10.0567 95.4613 9.93C95.148 9.80333 94.8747 9.64333 94.6413 9.45L95.0513 8.9C95.2647 9.07333 95.4813 9.21333 95.7013 9.32C95.928 9.42667 96.188 9.48 96.4813 9.48C96.8013 9.48 97.0413 9.40667 97.2013 9.26C97.3613 9.11333 97.4413 8.93333 97.4413 8.72C97.4413 8.59333 97.408 8.48333 97.3413 8.39C97.2747 8.29667 97.188 8.21667 97.0813 8.15C96.9813 8.07667 96.8647 8.01333 96.7313 7.96C96.598 7.90667 96.4647 7.85333 96.3313 7.8C96.158 7.74 95.9847 7.67333 95.8113 7.6C95.638 7.52 95.4813 7.42667 95.3413 7.32C95.208 7.20667 95.098 7.07667 95.0113 6.93C94.9247 6.78333 94.8813 6.60667 94.8813 6.4C94.8813 6.20667 94.918 6.02667 94.9913 5.86C95.0713 5.68667 95.1813 5.54 95.3213 5.42C95.468 5.29333 95.6447 5.19667 95.8513 5.13C96.058 5.05667 96.2913 5.02 96.5513 5.02C96.858 5.02 97.138 5.07333 97.3913 5.18C97.6513 5.28667 97.8747 5.41667 98.0613 5.57L97.6713 6.09C97.5047 5.96333 97.3313 5.86 97.1513 5.78C96.9713 5.7 96.7747 5.66 96.5613 5.66C96.2547 5.66 96.028 5.73 95.8813 5.87C95.7413 6.01 95.6713 6.17333 95.6713 6.36C95.6713 6.47333 95.7013 6.57333 95.7613 6.66C95.8213 6.74 95.9013 6.81333 96.0013 6.88C96.1013 6.94 96.2147 6.99667 96.3413 7.05C96.4747 7.09667 96.6113 7.14667 96.7513 7.2C96.9247 7.26667 97.098 7.33667 97.2713 7.41C97.4513 7.48333 97.6113 7.57667 97.7513 7.69C97.8913 7.79667 98.0047 7.93 98.0913 8.09C98.1847 8.25 98.2313 8.44333 98.2313 8.67C98.2313 8.87 98.1913 9.05667 98.1113 9.23C98.038 9.40333 97.9247 9.55667 97.7713 9.69C97.6247 9.82333 97.438 9.92667 97.2113 10C96.9913 10.08 96.738 10.12 96.4513 10.12ZM103.033 10.12C102.419 10.12 101.929 9.9 101.563 9.46C101.203 9.02 101.023 8.39333 101.023 7.58C101.023 7.18667 101.079 6.83333 101.193 6.52C101.313 6.2 101.469 5.93 101.663 5.71C101.856 5.49 102.079 5.32 102.333 5.2C102.586 5.08 102.853 5.02 103.133 5.02C103.413 5.02 103.656 5.07 103.863 5.17C104.069 5.27 104.279 5.40667 104.493 5.58L104.453 4.75V2.88H105.283V10H104.603L104.533 9.43H104.503C104.309 9.61667 104.086 9.78 103.833 9.92C103.586 10.0533 103.319 10.12 103.033 10.12ZM103.213 9.43C103.439 9.43 103.653 9.37667 103.853 9.27C104.053 9.15667 104.253 8.98667 104.453 8.76V6.22C104.246 6.03333 104.046 5.90333 103.853 5.83C103.666 5.75 103.473 5.71 103.273 5.71C103.079 5.71 102.896 5.75667 102.723 5.85C102.556 5.93667 102.409 6.06333 102.283 6.23C102.156 6.39 102.056 6.58333 101.983 6.81C101.909 7.03667 101.873 7.29 101.873 7.57C101.873 8.15667 101.989 8.61333 102.223 8.94C102.456 9.26667 102.786 9.43 103.213 9.43ZM108.34 10.12C107.82 10.12 107.44 9.96 107.2 9.64C106.966 9.32 106.85 8.84667 106.85 8.22V5.14H107.68V8.11C107.68 8.57 107.75 8.90333 107.89 9.11C108.036 9.31 108.27 9.41 108.59 9.41C108.843 9.41 109.066 9.34667 109.26 9.22C109.453 9.08667 109.666 8.87667 109.9 8.59V5.14H110.72V10H110.04L109.97 9.24H109.94C109.713 9.50667 109.473 9.72 109.22 9.88C108.973 10.04 108.68 10.12 108.34 10.12ZM114.329 10.12C114.002 10.12 113.696 10.0633 113.409 9.95C113.129 9.83 112.882 9.66333 112.669 9.45C112.462 9.23 112.299 8.96333 112.179 8.65C112.059 8.33667 111.999 7.98 111.999 7.58C111.999 7.18 112.059 6.82333 112.179 6.51C112.306 6.19 112.469 5.92 112.669 5.7C112.876 5.48 113.109 5.31333 113.369 5.2C113.629 5.08 113.899 5.02 114.179 5.02C114.486 5.02 114.759 5.07333 114.999 5.18C115.246 5.28667 115.449 5.44 115.609 5.64C115.776 5.84 115.902 6.08 115.989 6.36C116.076 6.64 116.119 6.95333 116.119 7.3C116.119 7.38667 116.116 7.47333 116.109 7.56C116.109 7.64 116.102 7.71 116.089 7.77H112.809C112.842 8.29 113.002 8.70333 113.289 9.01C113.582 9.31 113.962 9.46 114.429 9.46C114.662 9.46 114.876 9.42667 115.069 9.36C115.269 9.28667 115.459 9.19333 115.639 9.08L115.929 9.62C115.716 9.75333 115.479 9.87 115.219 9.97C114.959 10.07 114.662 10.12 114.329 10.12ZM112.799 7.18H115.399C115.399 6.68667 115.292 6.31333 115.079 6.06C114.872 5.8 114.579 5.67 114.199 5.67C114.026 5.67 113.859 5.70333 113.699 5.77C113.546 5.83667 113.406 5.93667 113.279 6.07C113.152 6.19667 113.046 6.35333 112.959 6.54C112.879 6.72667 112.826 6.94 112.799 7.18ZM118.59 10.12C118.243 10.12 117.913 10.0567 117.6 9.93C117.287 9.80333 117.013 9.64333 116.78 9.45L117.19 8.9C117.403 9.07333 117.62 9.21333 117.84 9.32C118.067 9.42667 118.327 9.48 118.62 9.48C118.94 9.48 119.18 9.40667 119.34 9.26C119.5 9.11333 119.58 8.93333 119.58 8.72C119.58 8.59333 119.547 8.48333 119.48 8.39C119.413 8.29667 119.327 8.21667 119.22 8.15C119.12 8.07667 119.003 8.01333 118.87 7.96C118.737 7.90667 118.603 7.85333 118.47 7.8C118.297 7.74 118.123 7.67333 117.95 7.6C117.777 7.52 117.62 7.42667 117.48 7.32C117.347 7.20667 117.237 7.07667 117.15 6.93C117.063 6.78333 117.02 6.60667 117.02 6.4C117.02 6.20667 117.057 6.02667 117.13 5.86C117.21 5.68667 117.32 5.54 117.46 5.42C117.607 5.29333 117.783 5.19667 117.99 5.13C118.197 5.05667 118.43 5.02 118.69 5.02C118.997 5.02 119.277 5.07333 119.53 5.18C119.79 5.28667 120.013 5.41667 120.2 5.57L119.81 6.09C119.643 5.96333 119.47 5.86 119.29 5.78C119.11 5.7 118.913 5.66 118.7 5.66C118.393 5.66 118.167 5.73 118.02 5.87C117.88 6.01 117.81 6.17333 117.81 6.36C117.81 6.47333 117.84 6.57333 117.9 6.66C117.96 6.74 118.04 6.81333 118.14 6.88C118.24 6.94 118.353 6.99667 118.48 7.05C118.613 7.09667 118.75 7.14667 118.89 7.2C119.063 7.26667 119.237 7.33667 119.41 7.41C119.59 7.48333 119.75 7.57667 119.89 7.69C120.03 7.79667 120.143 7.93 120.23 8.09C120.323 8.25 120.37 8.44333 120.37 8.67C120.37 8.87 120.33 9.05667 120.25 9.23C120.177 9.40333 120.063 9.55667 119.91 9.69C119.763 9.82333 119.577 9.92667 119.35 10C119.13 10.08 118.877 10.12 118.59 10.12ZM124.281 10L122.931 5.14H123.771L124.491 7.95C124.545 8.18333 124.595 8.41 124.641 8.63C124.688 8.85 124.735 9.07333 124.781 9.3H124.821C124.875 9.07333 124.928 8.85 124.981 8.63C125.035 8.40333 125.091 8.17667 125.151 7.95L125.901 5.14H126.701L127.461 7.95C127.521 8.18333 127.578 8.41 127.631 8.63C127.691 8.85 127.748 9.07333 127.801 9.3H127.841C127.895 9.07333 127.945 8.85 127.991 8.63C128.038 8.41 128.088 8.18333 128.141 7.95L128.851 5.14H129.631L128.331 10H127.331L126.631 7.39C126.571 7.15667 126.515 6.92667 126.461 6.7C126.415 6.47333 126.361 6.23667 126.301 5.99H126.261C126.208 6.23667 126.155 6.47667 126.101 6.71C126.048 6.93667 125.988 7.16667 125.921 7.4L125.241 10H124.281ZM130.689 10V5.14H131.509V10H130.689ZM131.109 4.14C130.949 4.14 130.812 4.09 130.699 3.99C130.592 3.89 130.539 3.76333 130.539 3.61C130.539 3.45 130.592 3.32333 130.699 3.23C130.812 3.13 130.949 3.08 131.109 3.08C131.269 3.08 131.402 3.13 131.509 3.23C131.622 3.32333 131.679 3.45 131.679 3.61C131.679 3.76333 131.622 3.89 131.509 3.99C131.402 4.09 131.269 4.14 131.109 4.14ZM134.68 10.12C134.42 10.12 134.2 10.08 134.02 10C133.847 9.92 133.703 9.81 133.59 9.67C133.483 9.53 133.407 9.36 133.36 9.16C133.313 8.96 133.29 8.74 133.29 8.5V5.81H132.57V5.19L133.33 5.14L133.43 3.78H134.12V5.14H135.43V5.81H134.12V8.51C134.12 8.81 134.173 9.04333 134.28 9.21C134.393 9.37 134.59 9.45 134.87 9.45C134.957 9.45 135.05 9.43667 135.15 9.41C135.25 9.38333 135.34 9.35333 135.42 9.32L135.58 9.94C135.447 9.98667 135.3 10.0267 135.14 10.06C134.987 10.1 134.833 10.12 134.68 10.12ZM136.529 10V2.88H137.349V4.82L137.319 5.82C137.552 5.6 137.796 5.41333 138.049 5.26C138.302 5.1 138.599 5.02 138.939 5.02C139.452 5.02 139.826 5.18 140.059 5.5C140.299 5.82 140.419 6.29333 140.419 6.92V10H139.599V7.03C139.599 6.57 139.526 6.24 139.379 6.04C139.232 5.83333 138.999 5.73 138.679 5.73C138.426 5.73 138.202 5.79333 138.009 5.92C137.816 6.04667 137.596 6.23333 137.349 6.48V10H136.529ZM144.05 10V3.44H144.88V10H144.05ZM149.157 10.12C148.744 10.12 148.364 10.0433 148.017 9.89C147.671 9.73667 147.367 9.51667 147.107 9.23C146.854 8.93667 146.654 8.58 146.507 8.16C146.367 7.73333 146.297 7.25333 146.297 6.72C146.297 6.19333 146.371 5.72 146.517 5.3C146.664 4.88 146.867 4.52333 147.127 4.23C147.387 3.93667 147.694 3.71333 148.047 3.56C148.401 3.4 148.787 3.32 149.207 3.32C149.607 3.32 149.957 3.40333 150.257 3.57C150.564 3.73 150.814 3.91667 151.007 4.13L150.557 4.67C150.384 4.48333 150.187 4.33333 149.967 4.22C149.747 4.10667 149.497 4.05 149.217 4.05C148.904 4.05 148.621 4.11333 148.367 4.24C148.114 4.36 147.897 4.53667 147.717 4.77C147.537 4.99667 147.397 5.27333 147.297 5.6C147.204 5.92667 147.157 6.29333 147.157 6.7C147.157 7.11333 147.204 7.48667 147.297 7.82C147.397 8.14667 147.534 8.42667 147.707 8.66C147.881 8.89333 148.091 9.07333 148.337 9.2C148.591 9.32667 148.874 9.39 149.187 9.39C149.507 9.39 149.787 9.32667 150.027 9.2C150.267 9.06667 150.494 8.88333 150.707 8.65L151.167 9.17C150.907 9.47 150.614 9.70333 150.287 9.87C149.961 10.0367 149.584 10.12 149.157 10.12ZM152.39 10V3.44H153.22V10H152.39ZM157.497 10.12C157.084 10.12 156.704 10.0433 156.357 9.89C156.011 9.73667 155.707 9.51667 155.447 9.23C155.194 8.93667 154.994 8.58 154.847 8.16C154.707 7.73333 154.637 7.25333 154.637 6.72C154.637 6.19333 154.711 5.72 154.857 5.3C155.004 4.88 155.207 4.52333 155.467 4.23C155.727 3.93667 156.034 3.71333 156.387 3.56C156.741 3.4 157.127 3.32 157.547 3.32C157.947 3.32 158.297 3.40333 158.597 3.57C158.904 3.73 159.154 3.91667 159.347 4.13L158.897 4.67C158.724 4.48333 158.527 4.33333 158.307 4.22C158.087 4.10667 157.837 4.05 157.557 4.05C157.244 4.05 156.961 4.11333 156.707 4.24C156.454 4.36 156.237 4.53667 156.057 4.77C155.877 4.99667 155.737 5.27333 155.637 5.6C155.544 5.92667 155.497 6.29333 155.497 6.7C155.497 7.11333 155.544 7.48667 155.637 7.82C155.737 8.14667 155.874 8.42667 156.047 8.66C156.221 8.89333 156.431 9.07333 156.677 9.2C156.931 9.32667 157.214 9.39 157.527 9.39C157.847 9.39 158.127 9.32667 158.367 9.2C158.607 9.06667 158.834 8.88333 159.047 8.65L159.507 9.17C159.247 9.47 158.954 9.70333 158.627 9.87C158.301 10.0367 157.924 10.12 157.497 10.12ZM160.73 10V3.44H161.56V10H160.73ZM167.429 10.12C167.202 10.12 166.966 10.0667 166.719 9.96C166.479 9.84667 166.252 9.69333 166.039 9.5H166.009L165.939 10H165.279V2.88H166.099V4.82L166.079 5.7C166.299 5.50667 166.539 5.34667 166.799 5.22C167.059 5.08667 167.326 5.02 167.599 5.02C167.912 5.02 168.189 5.08 168.429 5.2C168.669 5.31333 168.869 5.48 169.029 5.7C169.196 5.91333 169.319 6.17333 169.399 6.48C169.486 6.78 169.529 7.11667 169.529 7.49C169.529 7.90333 169.472 8.27333 169.359 8.6C169.246 8.92667 169.092 9.20333 168.899 9.43C168.706 9.65667 168.482 9.83 168.229 9.95C167.976 10.0633 167.709 10.12 167.429 10.12ZM167.289 9.43C167.489 9.43 167.672 9.38667 167.839 9.3C168.012 9.20667 168.159 9.08 168.279 8.92C168.406 8.75333 168.502 8.55 168.569 8.31C168.642 8.07 168.679 7.8 168.679 7.5C168.679 7.23333 168.656 6.99 168.609 6.77C168.562 6.55 168.486 6.36333 168.379 6.21C168.279 6.05 168.146 5.92667 167.979 5.84C167.819 5.75333 167.626 5.71 167.399 5.71C167.006 5.71 166.572 5.93 166.099 6.37V8.92C166.312 9.10667 166.522 9.24 166.729 9.32C166.942 9.39333 167.129 9.43 167.289 9.43ZM171.79 10.12C171.383 10.12 171.043 10 170.77 9.76C170.503 9.52 170.37 9.18 170.37 8.74C170.37 8.20667 170.606 7.8 171.08 7.52C171.553 7.23333 172.31 7.03333 173.35 6.92C173.35 6.76667 173.333 6.61667 173.3 6.47C173.273 6.32333 173.223 6.19333 173.15 6.08C173.076 5.96667 172.973 5.87667 172.84 5.81C172.713 5.73667 172.55 5.7 172.35 5.7C172.07 5.7 171.806 5.75333 171.56 5.86C171.313 5.96667 171.093 6.08667 170.9 6.22L170.58 5.65C170.806 5.50333 171.083 5.36333 171.41 5.23C171.736 5.09 172.096 5.02 172.49 5.02C173.083 5.02 173.513 5.20333 173.78 5.57C174.046 5.93 174.18 6.41333 174.18 7.02V10H173.5L173.43 9.42H173.4C173.166 9.61333 172.916 9.78 172.65 9.92C172.383 10.0533 172.096 10.12 171.79 10.12ZM172.03 9.46C172.263 9.46 172.483 9.40667 172.69 9.3C172.896 9.18667 173.116 9.02333 173.35 8.81V7.46C172.943 7.51333 172.6 7.57667 172.32 7.65C172.046 7.72333 171.823 7.81 171.65 7.91C171.483 8.01 171.36 8.12667 171.28 8.26C171.206 8.38667 171.17 8.52667 171.17 8.68C171.17 8.96 171.253 9.16 171.42 9.28C171.586 9.4 171.79 9.46 172.03 9.46ZM175.709 10V5.14H176.389L176.459 5.84H176.489C176.722 5.60667 176.965 5.41333 177.219 5.26C177.479 5.1 177.779 5.02 178.119 5.02C178.632 5.02 179.005 5.18 179.239 5.5C179.479 5.82 179.599 6.29333 179.599 6.92V10H178.779V7.03C178.779 6.57 178.705 6.24 178.559 6.04C178.412 5.83333 178.179 5.73 177.859 5.73C177.605 5.73 177.382 5.79333 177.189 5.92C176.995 6.04667 176.775 6.23333 176.529 6.48V10H175.709ZM181.177 10V2.88H181.987V7.7H182.017L184.087 5.14H184.997L183.367 7.09L185.217 10H184.317L182.897 7.66L181.987 8.72V10H181.177ZM26.71 22.12C26.41 22.12 26.1233 22.0633 25.85 21.95C25.5833 21.8367 25.3467 21.6733 25.14 21.46C24.9333 21.24 24.7667 20.9733 24.64 20.66C24.52 20.34 24.46 19.98 24.46 19.58C24.46 19.1733 24.52 18.8133 24.64 18.5C24.7667 18.18 24.9333 17.91 25.14 17.69C25.3467 17.47 25.5833 17.3033 25.85 17.19C26.1233 17.0767 26.41 17.02 26.71 17.02C27.01 17.02 27.2933 17.0767 27.56 17.19C27.8333 17.3033 28.0733 17.47 28.28 17.69C28.4867 17.91 28.65 18.18 28.77 18.5C28.8967 18.8133 28.96 19.1733 28.96 19.58C28.96 19.98 28.8967 20.34 28.77 20.66C28.65 20.9733 28.4867 21.24 28.28 21.46C28.0733 21.6733 27.8333 21.8367 27.56 21.95C27.2933 22.0633 27.01 22.12 26.71 22.12ZM26.71 21.44C26.9167 21.44 27.1067 21.3967 27.28 21.31C27.4533 21.2167 27.6 21.09 27.72 20.93C27.8467 20.7633 27.9433 20.5667 28.01 20.34C28.0767 20.1133 28.11 19.86 28.11 19.58C28.11 19.3 28.0767 19.0467 28.01 18.82C27.9433 18.5867 27.8467 18.3867 27.72 18.22C27.6 18.0533 27.4533 17.9267 27.28 17.84C27.1067 17.7467 26.9167 17.7 26.71 17.7C26.5033 17.7 26.3133 17.7467 26.14 17.84C25.9667 17.9267 25.8167 18.0533 25.69 18.22C25.57 18.3867 25.4767 18.5867 25.41 18.82C25.3433 19.0467 25.31 19.3 25.31 19.58C25.31 19.86 25.3433 20.1133 25.41 20.34C25.4767 20.5667 25.57 20.7633 25.69 20.93C25.8167 21.09 25.9667 21.2167 26.14 21.31C26.3133 21.3967 26.5033 21.44 26.71 21.44ZM30.2399 22V17.14H30.9199L30.9899 17.84H31.0199C31.2533 17.6067 31.4966 17.4133 31.7499 17.26C32.0099 17.1 32.3099 17.02 32.6499 17.02C33.1633 17.02 33.5366 17.18 33.7699 17.5C34.0099 17.82 34.1299 18.2933 34.1299 18.92V22H33.3099V19.03C33.3099 18.57 33.2366 18.24 33.0899 18.04C32.9433 17.8333 32.7099 17.73 32.3899 17.73C32.1366 17.73 31.9133 17.7933 31.7199 17.92C31.5266 18.0467 31.3066 18.2333 31.0599 18.48V22H30.2399ZM34.9887 23.6L37.6587 14.9H38.2587L35.5887 23.6H34.9887ZM41.3548 22.12C41.1281 22.12 40.8914 22.0667 40.6448 21.96C40.4048 21.8467 40.1781 21.6933 39.9648 21.5H39.9348L39.8648 22H39.2048V14.88H40.0248V16.82L40.0048 17.7C40.2248 17.5067 40.4648 17.3467 40.7248 17.22C40.9848 17.0867 41.2514 17.02 41.5248 17.02C41.8381 17.02 42.1148 17.08 42.3548 17.2C42.5948 17.3133 42.7948 17.48 42.9548 17.7C43.1214 17.9133 43.2448 18.1733 43.3248 18.48C43.4114 18.78 43.4548 19.1167 43.4548 19.49C43.4548 19.9033 43.3981 20.2733 43.2848 20.6C43.1714 20.9267 43.0181 21.2033 42.8248 21.43C42.6314 21.6567 42.4081 21.83 42.1548 21.95C41.9014 22.0633 41.6348 22.12 41.3548 22.12ZM41.2148 21.43C41.4148 21.43 41.5981 21.3867 41.7648 21.3C41.9381 21.2067 42.0848 21.08 42.2048 20.92C42.3314 20.7533 42.4281 20.55 42.4948 20.31C42.5681 20.07 42.6048 19.8 42.6048 19.5C42.6048 19.2333 42.5814 18.99 42.5348 18.77C42.4881 18.55 42.4114 18.3633 42.3048 18.21C42.2048 18.05 42.0714 17.9267 41.9048 17.84C41.7448 17.7533 41.5514 17.71 41.3248 17.71C40.9314 17.71 40.4981 17.93 40.0248 18.37V20.92C40.2381 21.1067 40.4481 21.24 40.6548 21.32C40.8681 21.3933 41.0548 21.43 41.2148 21.43ZM46.7021 22.12C46.3754 22.12 46.0688 22.0633 45.7821 21.95C45.5021 21.83 45.2554 21.6633 45.0421 21.45C44.8354 21.23 44.6721 20.9633 44.5521 20.65C44.4321 20.3367 44.3721 19.98 44.3721 19.58C44.3721 19.18 44.4321 18.8233 44.5521 18.51C44.6788 18.19 44.8421 17.92 45.0421 17.7C45.2488 17.48 45.4821 17.3133 45.7421 17.2C46.0021 17.08 46.2721 17.02 46.5521 17.02C46.8588 17.02 47.1321 17.0733 47.3721 17.18C47.6188 17.2867 47.8221 17.44 47.9821 17.64C48.1488 17.84 48.2754 18.08 48.3621 18.36C48.4488 18.64 48.4921 18.9533 48.4921 19.3C48.4921 19.3867 48.4888 19.4733 48.4821 19.56C48.4821 19.64 48.4754 19.71 48.4621 19.77H45.1821C45.2154 20.29 45.3754 20.7033 45.6621 21.01C45.9554 21.31 46.3354 21.46 46.8021 21.46C47.0354 21.46 47.2488 21.4267 47.4421 21.36C47.6421 21.2867 47.8321 21.1933 48.0121 21.08L48.3021 21.62C48.0888 21.7533 47.8521 21.87 47.5921 21.97C47.3321 22.07 47.0354 22.12 46.7021 22.12ZM45.1721 19.18H47.7721C47.7721 18.6867 47.6654 18.3133 47.4521 18.06C47.2454 17.8 46.9521 17.67 46.5721 17.67C46.3988 17.67 46.2321 17.7033 46.0721 17.77C45.9188 17.8367 45.7788 17.9367 45.6521 18.07C45.5254 18.1967 45.4188 18.3533 45.3321 18.54C45.2521 18.7267 45.1988 18.94 45.1721 19.18ZM49.833 22V17.81H49.173V17.19L49.833 17.14V16.37C49.833 15.87 49.9464 15.4767 50.173 15.19C50.4064 14.9033 50.7664 14.76 51.253 14.76C51.4064 14.76 51.5497 14.7767 51.683 14.81C51.823 14.8367 51.9497 14.8733 52.063 14.92L51.883 15.55C51.703 15.47 51.5197 15.43 51.333 15.43C50.8797 15.43 50.653 15.7433 50.653 16.37V17.14H51.683V17.81H50.653V22H49.833ZM54.4053 22.12C54.1053 22.12 53.8186 22.0633 53.5453 21.95C53.2786 21.8367 53.042 21.6733 52.8353 21.46C52.6286 21.24 52.462 20.9733 52.3353 20.66C52.2153 20.34 52.1553 19.98 52.1553 19.58C52.1553 19.1733 52.2153 18.8133 52.3353 18.5C52.462 18.18 52.6286 17.91 52.8353 17.69C53.042 17.47 53.2786 17.3033 53.5453 17.19C53.8186 17.0767 54.1053 17.02 54.4053 17.02C54.7053 17.02 54.9886 17.0767 55.2553 17.19C55.5286 17.3033 55.7686 17.47 55.9753 17.69C56.182 17.91 56.3453 18.18 56.4653 18.5C56.592 18.8133 56.6553 19.1733 56.6553 19.58C56.6553 19.98 56.592 20.34 56.4653 20.66C56.3453 20.9733 56.182 21.24 55.9753 21.46C55.7686 21.6733 55.5286 21.8367 55.2553 21.95C54.9886 22.0633 54.7053 22.12 54.4053 22.12ZM54.4053 21.44C54.612 21.44 54.802 21.3967 54.9753 21.31C55.1486 21.2167 55.2953 21.09 55.4153 20.93C55.542 20.7633 55.6386 20.5667 55.7053 20.34C55.772 20.1133 55.8053 19.86 55.8053 19.58C55.8053 19.3 55.772 19.0467 55.7053 18.82C55.6386 18.5867 55.542 18.3867 55.4153 18.22C55.2953 18.0533 55.1486 17.9267 54.9753 17.84C54.802 17.7467 54.612 17.7 54.4053 17.7C54.1986 17.7 54.0086 17.7467 53.8353 17.84C53.662 17.9267 53.512 18.0533 53.3853 18.22C53.2653 18.3867 53.172 18.5867 53.1053 18.82C53.0386 19.0467 53.0053 19.3 53.0053 19.58C53.0053 19.86 53.0386 20.1133 53.1053 20.34C53.172 20.5667 53.2653 20.7633 53.3853 20.93C53.512 21.09 53.662 21.2167 53.8353 21.31C54.0086 21.3967 54.1986 21.44 54.4053 21.44ZM57.9352 22V17.14H58.6152L58.6852 18.02H58.7152C58.8819 17.7133 59.0819 17.47 59.3152 17.29C59.5552 17.11 59.8152 17.02 60.0952 17.02C60.2886 17.02 60.4619 17.0533 60.6152 17.12L60.4552 17.84C60.3752 17.8133 60.3019 17.7933 60.2352 17.78C60.1686 17.7667 60.0852 17.76 59.9852 17.76C59.7786 17.76 59.5619 17.8433 59.3352 18.01C59.1152 18.1767 58.9219 18.4667 58.7552 18.88V22H57.9352ZM63.2744 22.12C62.9477 22.12 62.641 22.0633 62.3544 21.95C62.0744 21.83 61.8277 21.6633 61.6144 21.45C61.4077 21.23 61.2444 20.9633 61.1244 20.65C61.0044 20.3367 60.9444 19.98 60.9444 19.58C60.9444 19.18 61.0044 18.8233 61.1244 18.51C61.251 18.19 61.4144 17.92 61.6144 17.7C61.821 17.48 62.0544 17.3133 62.3144 17.2C62.5744 17.08 62.8444 17.02 63.1244 17.02C63.431 17.02 63.7044 17.0733 63.9444 17.18C64.191 17.2867 64.3944 17.44 64.5544 17.64C64.721 17.84 64.8477 18.08 64.9344 18.36C65.021 18.64 65.0644 18.9533 65.0644 19.3C65.0644 19.3867 65.061 19.4733 65.0544 19.56C65.0544 19.64 65.0477 19.71 65.0344 19.77H61.7544C61.7877 20.29 61.9477 20.7033 62.2344 21.01C62.5277 21.31 62.9077 21.46 63.3744 21.46C63.6077 21.46 63.821 21.4267 64.0144 21.36C64.2144 21.2867 64.4044 21.1933 64.5844 21.08L64.8744 21.62C64.661 21.7533 64.4244 21.87 64.1644 21.97C63.9044 22.07 63.6077 22.12 63.2744 22.12ZM61.7444 19.18H64.3444C64.3444 18.6867 64.2377 18.3133 64.0244 18.06C63.8177 17.8 63.5244 17.67 63.1444 17.67C62.971 17.67 62.8044 17.7033 62.6444 17.77C62.491 17.8367 62.351 17.9367 62.2244 18.07C62.0977 18.1967 61.991 18.3533 61.9044 18.54C61.8244 18.7267 61.771 18.94 61.7444 19.18ZM68.2373 22V21.32H69.6973V16.62H68.5373V16.09C68.8306 16.0367 69.0839 15.9733 69.2973 15.9C69.5173 15.82 69.7139 15.7267 69.8873 15.62H70.5173V21.32H71.8373V22H68.2373ZM74.758 22.12C74.5046 22.12 74.2713 22.0933 74.058 22.04C73.8513 21.9933 73.6613 21.93 73.488 21.85C73.3213 21.77 73.168 21.68 73.028 21.58C72.8946 21.4733 72.7746 21.3633 72.668 21.25L73.068 20.71C73.2546 20.9033 73.4746 21.0733 73.728 21.22C73.988 21.3667 74.3046 21.44 74.678 21.44C74.8713 21.44 75.0513 21.4067 75.218 21.34C75.3913 21.2667 75.5413 21.1667 75.668 21.04C75.7946 20.9133 75.8946 20.76 75.968 20.58C76.0413 20.4 76.078 20.2 76.078 19.98C76.078 19.54 75.9546 19.1967 75.708 18.95C75.4613 18.7033 75.1313 18.58 74.718 18.58C74.498 18.58 74.308 18.6133 74.148 18.68C73.9946 18.7467 73.8213 18.8433 73.628 18.97L73.188 18.69L73.398 15.62H76.588V16.33H74.118L73.948 18.22C74.1013 18.14 74.2546 18.0767 74.408 18.03C74.5613 17.9833 74.7346 17.96 74.928 17.96C75.2013 17.96 75.458 18 75.698 18.08C75.938 18.16 76.148 18.2833 76.328 18.45C76.508 18.61 76.648 18.8167 76.748 19.07C76.8546 19.3167 76.908 19.6133 76.908 19.96C76.908 20.3067 76.848 20.6133 76.728 20.88C76.608 21.1467 76.448 21.3733 76.248 21.56C76.048 21.74 75.818 21.88 75.558 21.98C75.3046 22.0733 75.038 22.12 74.758 22.12ZM79.7387 22.12C79.4787 22.12 79.2587 22.08 79.0787 22C78.9053 21.92 78.762 21.81 78.6487 21.67C78.542 21.53 78.4653 21.36 78.4187 21.16C78.372 20.96 78.3487 20.74 78.3487 20.5V17.81H77.6287V17.19L78.3887 17.14L78.4887 15.78H79.1787V17.14H80.4887V17.81H79.1787V20.51C79.1787 20.81 79.232 21.0433 79.3387 21.21C79.452 21.37 79.6487 21.45 79.9287 21.45C80.0153 21.45 80.1087 21.4367 80.2087 21.41C80.3087 21.3833 80.3987 21.3533 80.4787 21.32L80.6387 21.94C80.5053 21.9867 80.3587 22.0267 80.1987 22.06C80.0453 22.1 79.892 22.12 79.7387 22.12ZM81.5876 22V14.88H82.4076V16.82L82.3776 17.82C82.6109 17.6 82.8542 17.4133 83.1076 17.26C83.3609 17.1 83.6576 17.02 83.9976 17.02C84.5109 17.02 84.8842 17.18 85.1176 17.5C85.3576 17.82 85.4776 18.2933 85.4776 18.92V22H84.6576V19.03C84.6576 18.57 84.5842 18.24 84.4376 18.04C84.2909 17.8333 84.0576 17.73 83.7376 17.73C83.4842 17.73 83.2609 17.7933 83.0676 17.92C82.8742 18.0467 82.6542 18.2333 82.4076 18.48V22H81.5876ZM90.559 22.12C90.299 22.12 90.079 22.08 89.899 22C89.7257 21.92 89.5823 21.81 89.469 21.67C89.3623 21.53 89.2857 21.36 89.239 21.16C89.1923 20.96 89.169 20.74 89.169 20.5V17.81H88.449V17.19L89.209 17.14L89.309 15.78H89.999V17.14H91.309V17.81H89.999V20.51C89.999 20.81 90.0523 21.0433 90.159 21.21C90.2723 21.37 90.469 21.45 90.749 21.45C90.8357 21.45 90.929 21.4367 91.029 21.41C91.129 21.3833 91.219 21.3533 91.299 21.32L91.459 21.94C91.3257 21.9867 91.179 22.0267 91.019 22.06C90.8657 22.1 90.7123 22.12 90.559 22.12ZM94.1612 22.12C93.8612 22.12 93.5745 22.0633 93.3012 21.95C93.0345 21.8367 92.7978 21.6733 92.5912 21.46C92.3845 21.24 92.2178 20.9733 92.0912 20.66C91.9712 20.34 91.9112 19.98 91.9112 19.58C91.9112 19.1733 91.9712 18.8133 92.0912 18.5C92.2178 18.18 92.3845 17.91 92.5912 17.69C92.7978 17.47 93.0345 17.3033 93.3012 17.19C93.5745 17.0767 93.8612 17.02 94.1612 17.02C94.4612 17.02 94.7445 17.0767 95.0112 17.19C95.2845 17.3033 95.5245 17.47 95.7312 17.69C95.9378 17.91 96.1012 18.18 96.2212 18.5C96.3478 18.8133 96.4112 19.1733 96.4112 19.58C96.4112 19.98 96.3478 20.34 96.2212 20.66C96.1012 20.9733 95.9378 21.24 95.7312 21.46C95.5245 21.6733 95.2845 21.8367 95.0112 21.95C94.7445 22.0633 94.4612 22.12 94.1612 22.12ZM94.1612 21.44C94.3678 21.44 94.5578 21.3967 94.7312 21.31C94.9045 21.2167 95.0512 21.09 95.1712 20.93C95.2978 20.7633 95.3945 20.5667 95.4612 20.34C95.5278 20.1133 95.5612 19.86 95.5612 19.58C95.5612 19.3 95.5278 19.0467 95.4612 18.82C95.3945 18.5867 95.2978 18.3867 95.1712 18.22C95.0512 18.0533 94.9045 17.9267 94.7312 17.84C94.5578 17.7467 94.3678 17.7 94.1612 17.7C93.9545 17.7 93.7645 17.7467 93.5912 17.84C93.4178 17.9267 93.2678 18.0533 93.1412 18.22C93.0212 18.3867 92.9278 18.5867 92.8612 18.82C92.7945 19.0467 92.7612 19.3 92.7612 19.58C92.7612 19.86 92.7945 20.1133 92.8612 20.34C92.9278 20.5667 93.0212 20.7633 93.1412 20.93C93.2678 21.09 93.4178 21.2167 93.5912 21.31C93.7645 21.3967 93.9545 21.44 94.1612 21.44ZM100.813 22.12C100.406 22.12 100.066 22 99.793 21.76C99.5264 21.52 99.393 21.18 99.393 20.74C99.393 20.2067 99.6297 19.8 100.103 19.52C100.576 19.2333 101.333 19.0333 102.373 18.92C102.373 18.7667 102.356 18.6167 102.323 18.47C102.296 18.3233 102.246 18.1933 102.173 18.08C102.1 17.9667 101.996 17.8767 101.863 17.81C101.736 17.7367 101.573 17.7 101.373 17.7C101.093 17.7 100.83 17.7533 100.583 17.86C100.336 17.9667 100.116 18.0867 99.923 18.22L99.603 17.65C99.8297 17.5033 100.106 17.3633 100.433 17.23C100.76 17.09 101.12 17.02 101.513 17.02C102.106 17.02 102.536 17.2033 102.803 17.57C103.07 17.93 103.203 18.4133 103.203 19.02V22H102.523L102.453 21.42H102.423C102.19 21.6133 101.94 21.78 101.673 21.92C101.406 22.0533 101.12 22.12 100.813 22.12ZM101.053 21.46C101.286 21.46 101.506 21.4067 101.713 21.3C101.92 21.1867 102.14 21.0233 102.373 20.81V19.46C101.966 19.5133 101.623 19.5767 101.343 19.65C101.07 19.7233 100.846 19.81 100.673 19.91C100.506 20.01 100.383 20.1267 100.303 20.26C100.23 20.3867 100.193 20.5267 100.193 20.68C100.193 20.96 100.276 21.16 100.443 21.28C100.61 21.4 100.813 21.46 101.053 21.46ZM105.782 22L104.032 17.14H104.882L105.802 19.9C105.875 20.14 105.949 20.38 106.022 20.62C106.102 20.86 106.179 21.0967 106.252 21.33H106.292C106.365 21.0967 106.439 20.86 106.512 20.62C106.585 20.38 106.659 20.14 106.732 19.9L107.652 17.14H108.462L106.742 22H105.782ZM111.251 22.12C110.951 22.12 110.664 22.0633 110.391 21.95C110.124 21.8367 109.888 21.6733 109.681 21.46C109.474 21.24 109.308 20.9733 109.181 20.66C109.061 20.34 109.001 19.98 109.001 19.58C109.001 19.1733 109.061 18.8133 109.181 18.5C109.308 18.18 109.474 17.91 109.681 17.69C109.888 17.47 110.124 17.3033 110.391 17.19C110.664 17.0767 110.951 17.02 111.251 17.02C111.551 17.02 111.834 17.0767 112.101 17.19C112.374 17.3033 112.614 17.47 112.821 17.69C113.028 17.91 113.191 18.18 113.311 18.5C113.438 18.8133 113.501 19.1733 113.501 19.58C113.501 19.98 113.438 20.34 113.311 20.66C113.191 20.9733 113.028 21.24 112.821 21.46C112.614 21.6733 112.374 21.8367 112.101 21.95C111.834 22.0633 111.551 22.12 111.251 22.12ZM111.251 21.44C111.458 21.44 111.648 21.3967 111.821 21.31C111.994 21.2167 112.141 21.09 112.261 20.93C112.388 20.7633 112.484 20.5667 112.551 20.34C112.618 20.1133 112.651 19.86 112.651 19.58C112.651 19.3 112.618 19.0467 112.551 18.82C112.484 18.5867 112.388 18.3867 112.261 18.22C112.141 18.0533 111.994 17.9267 111.821 17.84C111.648 17.7467 111.458 17.7 111.251 17.7C111.044 17.7 110.854 17.7467 110.681 17.84C110.508 17.9267 110.358 18.0533 110.231 18.22C110.111 18.3867 110.018 18.5867 109.951 18.82C109.884 19.0467 109.851 19.3 109.851 19.58C109.851 19.86 109.884 20.1133 109.951 20.34C110.018 20.5667 110.111 20.7633 110.231 20.93C110.358 21.09 110.508 21.2167 110.681 21.31C110.854 21.3967 111.044 21.44 111.251 21.44ZM114.781 22V17.14H115.601V22H114.781ZM115.201 16.14C115.041 16.14 114.904 16.09 114.791 15.99C114.684 15.89 114.631 15.7633 114.631 15.61C114.631 15.45 114.684 15.3233 114.791 15.23C114.904 15.13 115.041 15.08 115.201 15.08C115.361 15.08 115.494 15.13 115.601 15.23C115.714 15.3233 115.771 15.45 115.771 15.61C115.771 15.7633 115.714 15.89 115.601 15.99C115.494 16.09 115.361 16.14 115.201 16.14ZM118.902 22.12C118.289 22.12 117.799 21.9 117.432 21.46C117.072 21.02 116.892 20.3933 116.892 19.58C116.892 19.1867 116.949 18.8333 117.062 18.52C117.182 18.2 117.339 17.93 117.532 17.71C117.725 17.49 117.949 17.32 118.202 17.2C118.455 17.08 118.722 17.02 119.002 17.02C119.282 17.02 119.525 17.07 119.732 17.17C119.939 17.27 120.149 17.4067 120.362 17.58L120.322 16.75V14.88H121.152V22H120.472L120.402 21.43H120.372C120.179 21.6167 119.955 21.78 119.702 21.92C119.455 22.0533 119.189 22.12 118.902 22.12ZM119.082 21.43C119.309 21.43 119.522 21.3767 119.722 21.27C119.922 21.1567 120.122 20.9867 120.322 20.76V18.22C120.115 18.0333 119.915 17.9033 119.722 17.83C119.535 17.75 119.342 17.71 119.142 17.71C118.949 17.71 118.765 17.7567 118.592 17.85C118.425 17.9367 118.279 18.0633 118.152 18.23C118.025 18.39 117.925 18.5833 117.852 18.81C117.779 19.0367 117.742 19.29 117.742 19.57C117.742 20.1567 117.859 20.6133 118.092 20.94C118.325 21.2667 118.655 21.43 119.082 21.43ZM125.661 22.12C125.347 22.12 125.124 22.0267 124.991 21.84C124.857 21.6533 124.791 21.38 124.791 21.02V14.88H125.611V21.08C125.611 21.2133 125.634 21.3067 125.681 21.36C125.727 21.4133 125.781 21.44 125.841 21.44C125.867 21.44 125.891 21.44 125.911 21.44C125.937 21.44 125.974 21.4333 126.021 21.42L126.131 22.04C126.077 22.0667 126.014 22.0867 125.941 22.1C125.867 22.1133 125.774 22.12 125.661 22.12ZM128.46 22.12C128.053 22.12 127.713 22 127.44 21.76C127.173 21.52 127.04 21.18 127.04 20.74C127.04 20.2067 127.276 19.8 127.75 19.52C128.223 19.2333 128.98 19.0333 130.02 18.92C130.02 18.7667 130.003 18.6167 129.97 18.47C129.943 18.3233 129.893 18.1933 129.82 18.08C129.746 17.9667 129.643 17.8767 129.51 17.81C129.383 17.7367 129.22 17.7 129.02 17.7C128.74 17.7 128.476 17.7533 128.23 17.86C127.983 17.9667 127.763 18.0867 127.57 18.22L127.25 17.65C127.476 17.5033 127.753 17.3633 128.08 17.23C128.406 17.09 128.766 17.02 129.16 17.02C129.753 17.02 130.183 17.2033 130.45 17.57C130.716 17.93 130.85 18.4133 130.85 19.02V22H130.17L130.1 21.42H130.07C129.836 21.6133 129.586 21.78 129.32 21.92C129.053 22.0533 128.766 22.12 128.46 22.12ZM128.7 21.46C128.933 21.46 129.153 21.4067 129.36 21.3C129.566 21.1867 129.786 21.0233 130.02 20.81V19.46C129.613 19.5133 129.27 19.5767 128.99 19.65C128.716 19.7233 128.493 19.81 128.32 19.91C128.153 20.01 128.03 20.1267 127.95 20.26C127.876 20.3867 127.84 20.5267 127.84 20.68C127.84 20.96 127.923 21.16 128.09 21.28C128.256 21.4 128.46 21.46 128.7 21.46ZM133.772 22.12C133.512 22.12 133.292 22.08 133.112 22C132.939 21.92 132.795 21.81 132.682 21.67C132.575 21.53 132.499 21.36 132.452 21.16C132.405 20.96 132.382 20.74 132.382 20.5V17.81H131.662V17.19L132.422 17.14L132.522 15.78H133.212V17.14H134.522V17.81H133.212V20.51C133.212 20.81 133.265 21.0433 133.372 21.21C133.485 21.37 133.682 21.45 133.962 21.45C134.049 21.45 134.142 21.4367 134.242 21.41C134.342 21.3833 134.432 21.3533 134.512 21.32L134.672 21.94C134.539 21.9867 134.392 22.0267 134.232 22.06C134.079 22.1 133.925 22.12 133.772 22.12ZM137.454 22.12C137.127 22.12 136.821 22.0633 136.534 21.95C136.254 21.83 136.007 21.6633 135.794 21.45C135.587 21.23 135.424 20.9633 135.304 20.65C135.184 20.3367 135.124 19.98 135.124 19.58C135.124 19.18 135.184 18.8233 135.304 18.51C135.431 18.19 135.594 17.92 135.794 17.7C136.001 17.48 136.234 17.3133 136.494 17.2C136.754 17.08 137.024 17.02 137.304 17.02C137.611 17.02 137.884 17.0733 138.124 17.18C138.371 17.2867 138.574 17.44 138.734 17.64C138.901 17.84 139.027 18.08 139.114 18.36C139.201 18.64 139.244 18.9533 139.244 19.3C139.244 19.3867 139.241 19.4733 139.234 19.56C139.234 19.64 139.227 19.71 139.214 19.77H135.934C135.967 20.29 136.127 20.7033 136.414 21.01C136.707 21.31 137.087 21.46 137.554 21.46C137.787 21.46 138.001 21.4267 138.194 21.36C138.394 21.2867 138.584 21.1933 138.764 21.08L139.054 21.62C138.841 21.7533 138.604 21.87 138.344 21.97C138.084 22.07 137.787 22.12 137.454 22.12ZM135.924 19.18H138.524C138.524 18.6867 138.417 18.3133 138.204 18.06C137.997 17.8 137.704 17.67 137.324 17.67C137.151 17.67 136.984 17.7033 136.824 17.77C136.671 17.8367 136.531 17.9367 136.404 18.07C136.277 18.1967 136.171 18.3533 136.084 18.54C136.004 18.7267 135.951 18.94 135.924 19.18ZM142.447 24.05V17.14H143.127L143.197 17.7H143.227C143.447 17.5133 143.687 17.3533 143.947 17.22C144.214 17.0867 144.49 17.02 144.777 17.02C145.09 17.02 145.367 17.08 145.607 17.2C145.847 17.3133 146.047 17.48 146.207 17.7C146.367 17.9133 146.487 18.1733 146.567 18.48C146.654 18.78 146.697 19.12 146.697 19.5C146.697 19.9133 146.64 20.2833 146.527 20.61C146.414 20.93 146.26 21.2033 146.067 21.43C145.874 21.6567 145.65 21.83 145.397 21.95C145.144 22.0633 144.877 22.12 144.597 22.12C144.37 22.12 144.144 22.07 143.917 21.97C143.697 21.87 143.474 21.7333 143.247 21.56L143.267 22.41V24.05H142.447ZM144.457 21.43C144.657 21.43 144.84 21.3867 145.007 21.3C145.18 21.2067 145.327 21.08 145.447 20.92C145.574 20.7533 145.67 20.55 145.737 20.31C145.81 20.07 145.847 19.8 145.847 19.5C145.847 19.2333 145.824 18.99 145.777 18.77C145.73 18.55 145.654 18.3633 145.547 18.21C145.447 18.05 145.314 17.9267 145.147 17.84C144.987 17.7533 144.794 17.71 144.567 17.71C144.36 17.71 144.15 17.7667 143.937 17.88C143.73 17.9933 143.507 18.1567 143.267 18.37V20.92C143.487 21.1067 143.7 21.24 143.907 21.32C144.114 21.3933 144.297 21.43 144.457 21.43ZM148.977 22.12C148.57 22.12 148.23 22 147.957 21.76C147.69 21.52 147.557 21.18 147.557 20.74C147.557 20.2067 147.794 19.8 148.267 19.52C148.74 19.2333 149.497 19.0333 150.537 18.92C150.537 18.7667 150.52 18.6167 150.487 18.47C150.46 18.3233 150.41 18.1933 150.337 18.08C150.264 17.9667 150.16 17.8767 150.027 17.81C149.9 17.7367 149.737 17.7 149.537 17.7C149.257 17.7 148.994 17.7533 148.747 17.86C148.5 17.9667 148.28 18.0867 148.087 18.22L147.767 17.65C147.994 17.5033 148.27 17.3633 148.597 17.23C148.924 17.09 149.284 17.02 149.677 17.02C150.27 17.02 150.7 17.2033 150.967 17.57C151.234 17.93 151.367 18.4133 151.367 19.02V22H150.687L150.617 21.42H150.587C150.354 21.6133 150.104 21.78 149.837 21.92C149.57 22.0533 149.284 22.12 148.977 22.12ZM149.217 21.46C149.45 21.46 149.67 21.4067 149.877 21.3C150.084 21.1867 150.304 21.0233 150.537 20.81V19.46C150.13 19.5133 149.787 19.5767 149.507 19.65C149.234 19.7233 149.01 19.81 148.837 19.91C148.67 20.01 148.547 20.1267 148.467 20.26C148.394 20.3867 148.357 20.5267 148.357 20.68C148.357 20.96 148.44 21.16 148.607 21.28C148.774 21.4 148.977 21.46 149.217 21.46ZM152.976 24.09C152.863 24.09 152.76 24.08 152.666 24.06C152.573 24.0467 152.486 24.0233 152.406 23.99L152.566 23.34C152.62 23.3533 152.68 23.3667 152.746 23.38C152.813 23.4 152.876 23.41 152.936 23.41C153.216 23.41 153.443 23.31 153.616 23.11C153.796 22.9167 153.936 22.67 154.036 22.37L154.146 22.01L152.196 17.14H153.046L154.036 19.83C154.11 20.0433 154.186 20.27 154.266 20.51C154.353 20.7433 154.433 20.9733 154.506 21.2H154.546C154.62 20.98 154.69 20.75 154.756 20.51C154.823 20.27 154.89 20.0433 154.956 19.83L155.826 17.14H156.626L154.796 22.4C154.71 22.64 154.613 22.8633 154.506 23.07C154.4 23.2767 154.273 23.4533 154.126 23.6C153.98 23.7533 153.813 23.8733 153.626 23.96C153.44 24.0467 153.223 24.09 152.976 24.09ZM157.564 22V17.14H158.244L158.314 17.84H158.344C158.557 17.6067 158.787 17.4133 159.034 17.26C159.287 17.1 159.561 17.02 159.854 17.02C160.227 17.02 160.517 17.1033 160.724 17.27C160.937 17.43 161.094 17.6567 161.194 17.95C161.447 17.67 161.701 17.4467 161.954 17.28C162.214 17.1067 162.494 17.02 162.794 17.02C163.294 17.02 163.664 17.18 163.904 17.5C164.151 17.82 164.274 18.2933 164.274 18.92V22H163.454V19.03C163.454 18.57 163.381 18.24 163.234 18.04C163.087 17.8333 162.861 17.73 162.554 17.73C162.187 17.73 161.781 17.98 161.334 18.48V22H160.514V19.03C160.514 18.57 160.441 18.24 160.294 18.04C160.147 17.8333 159.917 17.73 159.604 17.73C159.237 17.73 158.831 17.98 158.384 18.48V22H157.564ZM167.825 22.12C167.498 22.12 167.192 22.0633 166.905 21.95C166.625 21.83 166.378 21.6633 166.165 21.45C165.958 21.23 165.795 20.9633 165.675 20.65C165.555 20.3367 165.495 19.98 165.495 19.58C165.495 19.18 165.555 18.8233 165.675 18.51C165.802 18.19 165.965 17.92 166.165 17.7C166.372 17.48 166.605 17.3133 166.865 17.2C167.125 17.08 167.395 17.02 167.675 17.02C167.982 17.02 168.255 17.0733 168.495 17.18C168.742 17.2867 168.945 17.44 169.105 17.64C169.272 17.84 169.398 18.08 169.485 18.36C169.572 18.64 169.615 18.9533 169.615 19.3C169.615 19.3867 169.612 19.4733 169.605 19.56C169.605 19.64 169.598 19.71 169.585 19.77H166.305C166.338 20.29 166.498 20.7033 166.785 21.01C167.078 21.31 167.458 21.46 167.925 21.46C168.158 21.46 168.372 21.4267 168.565 21.36C168.765 21.2867 168.955 21.1933 169.135 21.08L169.425 21.62C169.212 21.7533 168.975 21.87 168.715 21.97C168.455 22.07 168.158 22.12 167.825 22.12ZM166.295 19.18H168.895C168.895 18.6867 168.788 18.3133 168.575 18.06C168.368 17.8 168.075 17.67 167.695 17.67C167.522 17.67 167.355 17.7033 167.195 17.77C167.042 17.8367 166.902 17.9367 166.775 18.07C166.648 18.1967 166.542 18.3533 166.455 18.54C166.375 18.7267 166.322 18.94 166.295 19.18ZM170.816 22V17.14H171.496L171.566 17.84H171.596C171.829 17.6067 172.073 17.4133 172.326 17.26C172.586 17.1 172.886 17.02 173.226 17.02C173.739 17.02 174.113 17.18 174.346 17.5C174.586 17.82 174.706 18.2933 174.706 18.92V22H173.886V19.03C173.886 18.57 173.813 18.24 173.666 18.04C173.519 17.8333 173.286 17.73 172.966 17.73C172.713 17.73 172.489 17.7933 172.296 17.92C172.103 18.0467 171.883 18.2333 171.636 18.48V22H170.816ZM177.815 22.12C177.555 22.12 177.335 22.08 177.155 22C176.982 21.92 176.838 21.81 176.725 21.67C176.618 21.53 176.542 21.36 176.495 21.16C176.448 20.96 176.425 20.74 176.425 20.5V17.81H175.705V17.19L176.465 17.14L176.565 15.78H177.255V17.14H178.565V17.81H177.255V20.51C177.255 20.81 177.308 21.0433 177.415 21.21C177.528 21.37 177.725 21.45 178.005 21.45C178.092 21.45 178.185 21.4367 178.285 21.41C178.385 21.3833 178.475 21.3533 178.555 21.32L178.715 21.94C178.582 21.9867 178.435 22.0267 178.275 22.06C178.122 22.1 177.968 22.12 177.815 22.12ZM181.806 22V17.81H181.146V17.19L181.806 17.14V16.37C181.806 15.87 181.919 15.4767 182.146 15.19C182.379 14.9033 182.739 14.76 183.226 14.76C183.379 14.76 183.522 14.7767 183.656 14.81C183.796 14.8367 183.922 14.8733 184.036 14.92L183.856 15.55C183.676 15.47 183.492 15.43 183.306 15.43C182.852 15.43 182.626 15.7433 182.626 16.37V17.14H183.656V17.81H182.626V22H181.806ZM186.458 22.12C186.131 22.12 185.825 22.0633 185.538 21.95C185.258 21.83 185.011 21.6633 184.798 21.45C184.591 21.23 184.428 20.9633 184.308 20.65C184.188 20.3367 184.128 19.98 184.128 19.58C184.128 19.18 184.188 18.8233 184.308 18.51C184.435 18.19 184.598 17.92 184.798 17.7C185.005 17.48 185.238 17.3133 185.498 17.2C185.758 17.08 186.028 17.02 186.308 17.02C186.615 17.02 186.888 17.0733 187.128 17.18C187.375 17.2867 187.578 17.44 187.738 17.64C187.905 17.84 188.031 18.08 188.118 18.36C188.205 18.64 188.248 18.9533 188.248 19.3C188.248 19.3867 188.245 19.4733 188.238 19.56C188.238 19.64 188.231 19.71 188.218 19.77H184.938C184.971 20.29 185.131 20.7033 185.418 21.01C185.711 21.31 186.091 21.46 186.558 21.46C186.791 21.46 187.005 21.4267 187.198 21.36C187.398 21.2867 187.588 21.1933 187.768 21.08L188.058 21.62C187.845 21.7533 187.608 21.87 187.348 21.97C187.088 22.07 186.791 22.12 186.458 22.12ZM184.928 19.18H187.528C187.528 18.6867 187.421 18.3133 187.208 18.06C187.001 17.8 186.708 17.67 186.328 17.67C186.155 17.67 185.988 17.7033 185.828 17.77C185.675 17.8367 185.535 17.9367 185.408 18.07C185.281 18.1967 185.175 18.3533 185.088 18.54C185.008 18.7267 184.955 18.94 184.928 19.18ZM191.419 22.12C191.092 22.12 190.786 22.0633 190.499 21.95C190.219 21.83 189.972 21.6633 189.759 21.45C189.552 21.23 189.389 20.9633 189.269 20.65C189.149 20.3367 189.089 19.98 189.089 19.58C189.089 19.18 189.149 18.8233 189.269 18.51C189.396 18.19 189.559 17.92 189.759 17.7C189.966 17.48 190.199 17.3133 190.459 17.2C190.719 17.08 190.989 17.02 191.269 17.02C191.576 17.02 191.849 17.0733 192.089 17.18C192.336 17.2867 192.539 17.44 192.699 17.64C192.866 17.84 192.992 18.08 193.079 18.36C193.166 18.64 193.209 18.9533 193.209 19.3C193.209 19.3867 193.206 19.4733 193.199 19.56C193.199 19.64 193.192 19.71 193.179 19.77H189.899C189.932 20.29 190.092 20.7033 190.379 21.01C190.672 21.31 191.052 21.46 191.519 21.46C191.752 21.46 191.966 21.4267 192.159 21.36C192.359 21.2867 192.549 21.1933 192.729 21.08L193.019 21.62C192.806 21.7533 192.569 21.87 192.309 21.97C192.049 22.07 191.752 22.12 191.419 22.12ZM189.889 19.18H192.489C192.489 18.6867 192.382 18.3133 192.169 18.06C191.962 17.8 191.669 17.67 191.289 17.67C191.116 17.67 190.949 17.7033 190.789 17.77C190.636 17.8367 190.496 17.9367 190.369 18.07C190.242 18.1967 190.136 18.3533 190.049 18.54C189.969 18.7267 189.916 18.94 189.889 19.18ZM195.68 22.12C195.333 22.12 195.003 22.0567 194.69 21.93C194.377 21.8033 194.103 21.6433 193.87 21.45L194.28 20.9C194.493 21.0733 194.71 21.2133 194.93 21.32C195.157 21.4267 195.417 21.48 195.71 21.48C196.03 21.48 196.27 21.4067 196.43 21.26C196.59 21.1133 196.67 20.9333 196.67 20.72C196.67 20.5933 196.637 20.4833 196.57 20.39C196.503 20.2967 196.417 20.2167 196.31 20.15C196.21 20.0767 196.093 20.0133 195.96 19.96C195.827 19.9067 195.693 19.8533 195.56 19.8C195.387 19.74 195.213 19.6733 195.04 19.6C194.867 19.52 194.71 19.4267 194.57 19.32C194.437 19.2067 194.327 19.0767 194.24 18.93C194.153 18.7833 194.11 18.6067 194.11 18.4C194.11 18.2067 194.147 18.0267 194.22 17.86C194.3 17.6867 194.41 17.54 194.55 17.42C194.697 17.2933 194.873 17.1967 195.08 17.13C195.287 17.0567 195.52 17.02 195.78 17.02C196.087 17.02 196.367 17.0733 196.62 17.18C196.88 17.2867 197.103 17.4167 197.29 17.57L196.9 18.09C196.733 17.9633 196.56 17.86 196.38 17.78C196.2 17.7 196.003 17.66 195.79 17.66C195.483 17.66 195.257 17.73 195.11 17.87C194.97 18.01 194.9 18.1733 194.9 18.36C194.9 18.4733 194.93 18.5733 194.99 18.66C195.05 18.74 195.13 18.8133 195.23 18.88C195.33 18.94 195.443 18.9967 195.57 19.05C195.703 19.0967 195.84 19.1467 195.98 19.2C196.153 19.2667 196.327 19.3367 196.5 19.41C196.68 19.4833 196.84 19.5767 196.98 19.69C197.12 19.7967 197.233 19.93 197.32 20.09C197.413 20.25 197.46 20.4433 197.46 20.67C197.46 20.87 197.42 21.0567 197.34 21.23C197.267 21.4033 197.153 21.5567 197 21.69C196.853 21.8233 196.667 21.9267 196.44 22C196.22 22.08 195.967 22.12 195.68 22.12ZM199.029 22.12C198.863 22.12 198.719 22.0633 198.599 21.95C198.486 21.83 198.429 21.68 198.429 21.5C198.429 21.3067 198.486 21.1533 198.599 21.04C198.719 20.92 198.863 20.86 199.029 20.86C199.189 20.86 199.326 20.92 199.439 21.04C199.559 21.1533 199.619 21.3067 199.619 21.5C199.619 21.68 199.559 21.83 199.439 21.95C199.326 22.0633 199.189 22.12 199.029 22.12Z" fill="#202020"/>
<path d="M24.9 34V27.44H25.9L27.16 30.94C27.24 31.1667 27.3167 31.3967 27.39 31.63C27.47 31.8567 27.55 32.0833 27.63 32.31H27.67C27.75 32.0833 27.8233 31.8567 27.89 31.63C27.9633 31.3967 28.04 31.1667 28.12 30.94L29.36 27.44H30.37V34H29.59V30.39C29.59 30.0967 29.6033 29.7733 29.63 29.42C29.6567 29.0667 29.68 28.7433 29.7 28.45H29.66L29.14 29.94L27.9 33.34H27.35L26.11 29.94L25.59 28.45H25.55C25.57 28.7433 25.59 29.0667 25.61 29.42C25.6367 29.7733 25.65 30.0967 25.65 30.39V34H24.9ZM33.2056 34.12C32.799 34.12 32.459 34 32.1856 33.76C31.919 33.52 31.7856 33.18 31.7856 32.74C31.7856 32.2067 32.0223 31.8 32.4956 31.52C32.969 31.2333 33.7256 31.0333 34.7656 30.92C34.7656 30.7667 34.749 30.6167 34.7156 30.47C34.689 30.3233 34.639 30.1933 34.5656 30.08C34.4923 29.9667 34.389 29.8767 34.2556 29.81C34.129 29.7367 33.9656 29.7 33.7656 29.7C33.4856 29.7 33.2223 29.7533 32.9756 29.86C32.729 29.9667 32.509 30.0867 32.3156 30.22L31.9956 29.65C32.2223 29.5033 32.499 29.3633 32.8256 29.23C33.1523 29.09 33.5123 29.02 33.9056 29.02C34.499 29.02 34.929 29.2033 35.1956 29.57C35.4623 29.93 35.5956 30.4133 35.5956 31.02V34H34.9156L34.8456 33.42H34.8156C34.5823 33.6133 34.3323 33.78 34.0656 33.92C33.799 34.0533 33.5123 34.12 33.2056 34.12ZM33.4456 33.46C33.679 33.46 33.899 33.4067 34.1056 33.3C34.3123 33.1867 34.5323 33.0233 34.7656 32.81V31.46C34.359 31.5133 34.0156 31.5767 33.7356 31.65C33.4623 31.7233 33.239 31.81 33.0656 31.91C32.899 32.01 32.7756 32.1267 32.6956 32.26C32.6223 32.3867 32.5856 32.5267 32.5856 32.68C32.5856 32.96 32.669 33.16 32.8356 33.28C33.0023 33.4 33.2056 33.46 33.4456 33.46ZM37.1247 34V29.14H37.8047L37.8747 29.84H37.9047C38.138 29.6067 38.3814 29.4133 38.6347 29.26C38.8947 29.1 39.1947 29.02 39.5347 29.02C40.048 29.02 40.4214 29.18 40.6547 29.5C40.8947 29.82 41.0147 30.2933 41.0147 30.92V34H40.1947V31.03C40.1947 30.57 40.1214 30.24 39.9747 30.04C39.828 29.8333 39.5947 29.73 39.2747 29.73C39.0214 29.73 38.798 29.7933 38.6047 29.92C38.4114 30.0467 38.1914 30.2333 37.9447 30.48V34H37.1247ZM43.7134 34.12C43.3068 34.12 42.9668 34 42.6934 33.76C42.4268 33.52 42.2934 33.18 42.2934 32.74C42.2934 32.2067 42.5301 31.8 43.0034 31.52C43.4768 31.2333 44.2334 31.0333 45.2734 30.92C45.2734 30.7667 45.2568 30.6167 45.2234 30.47C45.1968 30.3233 45.1468 30.1933 45.0734 30.08C45.0001 29.9667 44.8968 29.8767 44.7634 29.81C44.6368 29.7367 44.4734 29.7 44.2734 29.7C43.9934 29.7 43.7301 29.7533 43.4834 29.86C43.2368 29.9667 43.0168 30.0867 42.8234 30.22L42.5034 29.65C42.7301 29.5033 43.0068 29.3633 43.3334 29.23C43.6601 29.09 44.0201 29.02 44.4134 29.02C45.0068 29.02 45.4368 29.2033 45.7034 29.57C45.9701 29.93 46.1034 30.4133 46.1034 31.02V34H45.4234L45.3534 33.42H45.3234C45.0901 33.6133 44.8401 33.78 44.5734 33.92C44.3068 34.0533 44.0201 34.12 43.7134 34.12ZM43.9534 33.46C44.1868 33.46 44.4068 33.4067 44.6134 33.3C44.8201 33.1867 45.0401 33.0233 45.2734 32.81V31.46C44.8668 31.5133 44.5234 31.5767 44.2434 31.65C43.9701 31.7233 43.7468 31.81 43.5734 31.91C43.4068 32.01 43.2834 32.1267 43.2034 32.26C43.1301 32.3867 43.0934 32.5267 43.0934 32.68C43.0934 32.96 43.1768 33.16 43.3434 33.28C43.5101 33.4 43.7134 33.46 43.9534 33.46ZM49.2725 36.24C48.9725 36.24 48.6992 36.21 48.4525 36.15C48.2058 36.0967 47.9925 36.0133 47.8125 35.9C47.6392 35.7867 47.5025 35.65 47.4025 35.49C47.3092 35.33 47.2625 35.1433 47.2625 34.93C47.2625 34.7233 47.3258 34.5267 47.4525 34.34C47.5792 34.1533 47.7525 33.9833 47.9725 33.83V33.79C47.8525 33.7167 47.7492 33.6167 47.6625 33.49C47.5825 33.3567 47.5425 33.1933 47.5425 33C47.5425 32.7933 47.5992 32.6133 47.7125 32.46C47.8258 32.3067 47.9458 32.1867 48.0725 32.1V32.06C47.9125 31.9267 47.7658 31.75 47.6325 31.53C47.5058 31.3033 47.4425 31.0433 47.4425 30.75C47.4425 30.4833 47.4892 30.2433 47.5825 30.03C47.6825 29.8167 47.8158 29.6367 47.9825 29.49C48.1492 29.3367 48.3425 29.22 48.5625 29.14C48.7892 29.06 49.0258 29.02 49.2725 29.02C49.4058 29.02 49.5292 29.0333 49.6425 29.06C49.7625 29.08 49.8692 29.1067 49.9625 29.14H51.6525V29.77H50.6525C50.7658 29.8833 50.8592 30.0267 50.9325 30.2C51.0125 30.3733 51.0525 30.5633 51.0525 30.77C51.0525 31.03 51.0058 31.2667 50.9125 31.48C50.8192 31.6867 50.6925 31.8633 50.5325 32.01C50.3725 32.15 50.1825 32.26 49.9625 32.34C49.7492 32.42 49.5192 32.46 49.2725 32.46C49.1525 32.46 49.0292 32.4467 48.9025 32.42C48.7758 32.3867 48.6558 32.3433 48.5425 32.29C48.4558 32.3633 48.3825 32.4467 48.3225 32.54C48.2625 32.6267 48.2325 32.7367 48.2325 32.87C48.2325 33.0233 48.2925 33.15 48.4125 33.25C48.5325 33.35 48.7592 33.4 49.0925 33.4H50.0325C50.5992 33.4 51.0225 33.4933 51.3025 33.68C51.5892 33.86 51.7325 34.1533 51.7325 34.56C51.7325 34.7867 51.6758 35 51.5625 35.2C51.4492 35.4067 51.2858 35.5867 51.0725 35.74C50.8592 35.8933 50.5992 36.0133 50.2925 36.1C49.9925 36.1933 49.6525 36.24 49.2725 36.24ZM49.2725 31.91C49.4125 31.91 49.5425 31.8833 49.6625 31.83C49.7892 31.7767 49.8992 31.7 49.9925 31.6C50.0925 31.5 50.1692 31.38 50.2225 31.24C50.2758 31.0933 50.3025 30.93 50.3025 30.75C50.3025 30.39 50.2025 30.1133 50.0025 29.92C49.8025 29.72 49.5592 29.62 49.2725 29.62C48.9858 29.62 48.7425 29.72 48.5425 29.92C48.3425 30.1133 48.2425 30.39 48.2425 30.75C48.2425 30.93 48.2692 31.0933 48.3225 31.24C48.3758 31.38 48.4492 31.5 48.5425 31.6C48.6425 31.7 48.7525 31.7767 48.8725 31.83C48.9992 31.8833 49.1325 31.91 49.2725 31.91ZM49.3925 35.67C49.6258 35.67 49.8358 35.64 50.0225 35.58C50.2158 35.5267 50.3792 35.4533 50.5125 35.36C50.6458 35.2733 50.7492 35.17 50.8225 35.05C50.8958 34.93 50.9325 34.8067 50.9325 34.68C50.9325 34.4533 50.8492 34.2967 50.6825 34.21C50.5158 34.1233 50.2725 34.08 49.9525 34.08H49.1125C49.0192 34.08 48.9158 34.0733 48.8025 34.06C48.6958 34.0533 48.5892 34.0333 48.4825 34C48.3092 34.1267 48.1825 34.26 48.1025 34.4C48.0225 34.54 47.9825 34.68 47.9825 34.82C47.9825 35.08 48.1058 35.2867 48.3525 35.44C48.6058 35.5933 48.9525 35.67 49.3925 35.67ZM54.5048 34.12C54.1782 34.12 53.8715 34.0633 53.5848 33.95C53.3048 33.83 53.0582 33.6633 52.8448 33.45C52.6382 33.23 52.4748 32.9633 52.3548 32.65C52.2348 32.3367 52.1748 31.98 52.1748 31.58C52.1748 31.18 52.2348 30.8233 52.3548 30.51C52.4815 30.19 52.6448 29.92 52.8448 29.7C53.0515 29.48 53.2848 29.3133 53.5448 29.2C53.8048 29.08 54.0748 29.02 54.3548 29.02C54.6615 29.02 54.9348 29.0733 55.1748 29.18C55.4215 29.2867 55.6248 29.44 55.7848 29.64C55.9515 29.84 56.0782 30.08 56.1648 30.36C56.2515 30.64 56.2948 30.9533 56.2948 31.3C56.2948 31.3867 56.2915 31.4733 56.2848 31.56C56.2848 31.64 56.2782 31.71 56.2648 31.77H52.9848C53.0182 32.29 53.1782 32.7033 53.4648 33.01C53.7582 33.31 54.1382 33.46 54.6048 33.46C54.8382 33.46 55.0515 33.4267 55.2448 33.36C55.4448 33.2867 55.6348 33.1933 55.8148 33.08L56.1048 33.62C55.8915 33.7533 55.6548 33.87 55.3948 33.97C55.1348 34.07 54.8382 34.12 54.5048 34.12ZM52.9748 31.18H55.5748C55.5748 30.6867 55.4682 30.3133 55.2548 30.06C55.0482 29.8 54.7548 29.67 54.3748 29.67C54.2015 29.67 54.0348 29.7033 53.8748 29.77C53.7215 29.8367 53.5815 29.9367 53.4548 30.07C53.3282 30.1967 53.2215 30.3533 53.1348 30.54C53.0548 30.7267 53.0015 30.94 52.9748 31.18ZM60.6177 34.12C60.2111 34.12 59.8711 34 59.5977 33.76C59.3311 33.52 59.1977 33.18 59.1977 32.74C59.1977 32.2067 59.4344 31.8 59.9077 31.52C60.3811 31.2333 61.1377 31.0333 62.1777 30.92C62.1777 30.7667 62.1611 30.6167 62.1277 30.47C62.1011 30.3233 62.0511 30.1933 61.9777 30.08C61.9044 29.9667 61.8011 29.8767 61.6677 29.81C61.5411 29.7367 61.3777 29.7 61.1777 29.7C60.8977 29.7 60.6344 29.7533 60.3877 29.86C60.1411 29.9667 59.9211 30.0867 59.7277 30.22L59.4077 29.65C59.6344 29.5033 59.9111 29.3633 60.2377 29.23C60.5644 29.09 60.9244 29.02 61.3177 29.02C61.9111 29.02 62.3411 29.2033 62.6077 29.57C62.8744 29.93 63.0077 30.4133 63.0077 31.02V34H62.3277L62.2577 33.42H62.2277C61.9944 33.6133 61.7444 33.78 61.4777 33.92C61.2111 34.0533 60.9244 34.12 60.6177 34.12ZM60.8577 33.46C61.0911 33.46 61.3111 33.4067 61.5177 33.3C61.7244 33.1867 61.9444 33.0233 62.1777 32.81V31.46C61.7711 31.5133 61.4277 31.5767 61.1477 31.65C60.8744 31.7233 60.6511 31.81 60.4777 31.91C60.3111 32.01 60.1877 32.1267 60.1077 32.26C60.0344 32.3867 59.9977 32.5267 59.9977 32.68C59.9977 32.96 60.0811 33.16 60.2477 33.28C60.4144 33.4 60.6177 33.46 60.8577 33.46ZM66.4568 34.12C66.1368 34.12 65.8368 34.0633 65.5568 33.95C65.2768 33.8367 65.0335 33.6733 64.8268 33.46C64.6268 33.24 64.4668 32.9733 64.3468 32.66C64.2335 32.34 64.1768 31.98 64.1768 31.58C64.1768 31.1733 64.2401 30.8133 64.3668 30.5C64.4935 30.18 64.6635 29.91 64.8768 29.69C65.0901 29.47 65.3368 29.3033 65.6168 29.19C65.9035 29.0767 66.2035 29.02 66.5168 29.02C66.8368 29.02 67.1101 29.0767 67.3368 29.19C67.5635 29.3033 67.7635 29.4367 67.9368 29.59L67.5168 30.13C67.3768 30.0033 67.2268 29.9 67.0668 29.82C66.9135 29.74 66.7401 29.7 66.5468 29.7C66.3268 29.7 66.1235 29.7467 65.9368 29.84C65.7501 29.9267 65.5901 30.0533 65.4568 30.22C65.3235 30.3867 65.2168 30.5867 65.1368 30.82C65.0635 31.0467 65.0268 31.3 65.0268 31.58C65.0268 31.86 65.0635 32.1133 65.1368 32.34C65.2101 32.5667 65.3101 32.7633 65.4368 32.93C65.5701 33.09 65.7301 33.2167 65.9168 33.31C66.1035 33.3967 66.3068 33.44 66.5268 33.44C66.7535 33.44 66.9601 33.3933 67.1468 33.3C67.3401 33.2 67.5135 33.0833 67.6668 32.95L68.0268 33.5C67.8068 33.6933 67.5635 33.8467 67.2968 33.96C67.0301 34.0667 66.7501 34.12 66.4568 34.12ZM70.8025 34.12C70.4825 34.12 70.1825 34.0633 69.9025 33.95C69.6225 33.8367 69.3792 33.6733 69.1725 33.46C68.9725 33.24 68.8125 32.9733 68.6925 32.66C68.5792 32.34 68.5225 31.98 68.5225 31.58C68.5225 31.1733 68.5858 30.8133 68.7125 30.5C68.8392 30.18 69.0092 29.91 69.2225 29.69C69.4358 29.47 69.6825 29.3033 69.9625 29.19C70.2492 29.0767 70.5492 29.02 70.8625 29.02C71.1825 29.02 71.4558 29.0767 71.6825 29.19C71.9092 29.3033 72.1092 29.4367 72.2825 29.59L71.8625 30.13C71.7225 30.0033 71.5725 29.9 71.4125 29.82C71.2592 29.74 71.0858 29.7 70.8925 29.7C70.6725 29.7 70.4692 29.7467 70.2825 29.84C70.0958 29.9267 69.9358 30.0533 69.8025 30.22C69.6692 30.3867 69.5625 30.5867 69.4825 30.82C69.4092 31.0467 69.3725 31.3 69.3725 31.58C69.3725 31.86 69.4092 32.1133 69.4825 32.34C69.5558 32.5667 69.6558 32.7633 69.7825 32.93C69.9158 33.09 70.0758 33.2167 70.2625 33.31C70.4492 33.3967 70.6525 33.44 70.8725 33.44C71.0992 33.44 71.3058 33.3933 71.4925 33.3C71.6858 33.2 71.8592 33.0833 72.0125 32.95L72.3725 33.5C72.1525 33.6933 71.9092 33.8467 71.6425 33.96C71.3758 34.0667 71.0958 34.12 70.8025 34.12ZM75.1182 34.12C74.8182 34.12 74.5315 34.0633 74.2582 33.95C73.9915 33.8367 73.7549 33.6733 73.5482 33.46C73.3415 33.24 73.1749 32.9733 73.0482 32.66C72.9282 32.34 72.8682 31.98 72.8682 31.58C72.8682 31.1733 72.9282 30.8133 73.0482 30.5C73.1749 30.18 73.3415 29.91 73.5482 29.69C73.7549 29.47 73.9915 29.3033 74.2582 29.19C74.5315 29.0767 74.8182 29.02 75.1182 29.02C75.4182 29.02 75.7015 29.0767 75.9682 29.19C76.2415 29.3033 76.4815 29.47 76.6882 29.69C76.8949 29.91 77.0582 30.18 77.1782 30.5C77.3049 30.8133 77.3682 31.1733 77.3682 31.58C77.3682 31.98 77.3049 32.34 77.1782 32.66C77.0582 32.9733 76.8949 33.24 76.6882 33.46C76.4815 33.6733 76.2415 33.8367 75.9682 33.95C75.7015 34.0633 75.4182 34.12 75.1182 34.12ZM75.1182 33.44C75.3249 33.44 75.5149 33.3967 75.6882 33.31C75.8615 33.2167 76.0082 33.09 76.1282 32.93C76.2549 32.7633 76.3515 32.5667 76.4182 32.34C76.4849 32.1133 76.5182 31.86 76.5182 31.58C76.5182 31.3 76.4849 31.0467 76.4182 30.82C76.3515 30.5867 76.2549 30.3867 76.1282 30.22C76.0082 30.0533 75.8615 29.9267 75.6882 29.84C75.5149 29.7467 75.3249 29.7 75.1182 29.7C74.9115 29.7 74.7215 29.7467 74.5482 29.84C74.3749 29.9267 74.2249 30.0533 74.0982 30.22C73.9782 30.3867 73.8849 30.5867 73.8182 30.82C73.7515 31.0467 73.7182 31.3 73.7182 31.58C73.7182 31.86 73.7515 32.1133 73.8182 32.34C73.8849 32.5667 73.9782 32.7633 74.0982 32.93C74.2249 33.09 74.3749 33.2167 74.5482 33.31C74.7215 33.3967 74.9115 33.44 75.1182 33.44ZM80.0681 34.12C79.5481 34.12 79.1681 33.96 78.9281 33.64C78.6948 33.32 78.5781 32.8467 78.5781 32.22V29.14H79.4081V32.11C79.4081 32.57 79.4781 32.9033 79.6181 33.11C79.7648 33.31 79.9981 33.41 80.3181 33.41C80.5715 33.41 80.7948 33.3467 80.9881 33.22C81.1815 33.0867 81.3948 32.8767 81.6281 32.59V29.14H82.4481V34H81.7681L81.6981 33.24H81.6681C81.4415 33.5067 81.2015 33.72 80.9481 33.88C80.7015 34.04 80.4081 34.12 80.0681 34.12ZM84.0876 34V29.14H84.7676L84.8376 29.84H84.8676C85.1009 29.6067 85.3442 29.4133 85.5976 29.26C85.8576 29.1 86.1576 29.02 86.4976 29.02C87.0109 29.02 87.3842 29.18 87.6176 29.5C87.8576 29.82 87.9776 30.2933 87.9776 30.92V34H87.1576V31.03C87.1576 30.57 87.0842 30.24 86.9376 30.04C86.7909 29.8333 86.5576 29.73 86.2376 29.73C85.9842 29.73 85.7609 29.7933 85.5676 29.92C85.3742 30.0467 85.1542 30.2333 84.9076 30.48V34H84.0876ZM91.0863 34.12C90.8263 34.12 90.6063 34.08 90.4263 34C90.253 33.92 90.1097 33.81 89.9963 33.67C89.8897 33.53 89.813 33.36 89.7663 33.16C89.7197 32.96 89.6963 32.74 89.6963 32.5V29.81H88.9763V29.19L89.7363 29.14L89.8363 27.78H90.5263V29.14H91.8363V29.81H90.5263V32.51C90.5263 32.81 90.5797 33.0433 90.6863 33.21C90.7997 33.37 90.9963 33.45 91.2763 33.45C91.363 33.45 91.4563 33.4367 91.5563 33.41C91.6563 33.3833 91.7463 33.3533 91.8263 33.32L91.9863 33.94C91.853 33.9867 91.7063 34.0267 91.5463 34.06C91.393 34.1 91.2397 34.12 91.0863 34.12Z" fill="#00A699"/>
<path d="M24 35H92.1163V35.5H24V35Z" fill="#00A699"/>
<path fill-rule="evenodd" clip-rule="evenodd" d="M7.99998 12C4.68627 12 1.99998 14.6863 1.99998 18C1.99998 21.3137 4.68627 24 7.99998 24C11.3137 24 14 21.3137 14 18C14 14.6863 11.3137 12 7.99998 12ZM0.666649 18C0.666649 13.9499 3.94989 10.6667 7.99998 10.6667C12.0501 10.6667 15.3333 13.9499 15.3333 18C15.3333 22.0501 12.0501 25.3333 7.99998 25.3333C3.94989 25.3333 0.666649 22.0501 0.666649 18Z" fill="black"/>
<path fill-rule="evenodd" clip-rule="evenodd" d="M7.99998 17.3333C8.36817 17.3333 8.66665 17.6318 8.66665 18V20.6667C8.66665 21.0348 8.36817 21.3333 7.99998 21.3333C7.63179 21.3333 7.33331 21.0348 7.33331 20.6667V18C7.33331 17.6318 7.63179 17.3333 7.99998 17.3333Z" fill="black"/>
<path d="M8.66665 15.3333C8.66665 15.7015 8.36817 16 7.99998 16C7.63179 16 7.33331 15.7015 7.33331 15.3333C7.33331 14.9651 7.63179 14.6667 7.99998 14.6667C8.36817 14.6667 8.66665 14.9651 8.66665 15.3333Z" fill="black"/>
</svg>
